<?xml version="1.0" encoding="utf-8"?>
<!-- Generator: Adobe Illustrator 19.2.1, SVG Export Plug-In . SVG Version: 6.00 Build 0)  -->
<svg version="1.1" id="layer" xmlns="http://www.w3.org/2000/svg" xmlns:xlink="http://www.w3.org/1999/xlink" x="0px" y="0px"
	 viewBox="0 0 652 652" style="enable-background:new 0 0 652 652;" xml:space="preserve">
<style type="text/css">
	.st0{fill:#00467F;}
	.st1{fill:#E36F1E;}
	.st2{fill:#FFFFFF;}
	.st3{fill:#FBB040;}
	.st4{fill:#7AC143;}
</style>
<g>
	<path class="st0" d="M221.1,400.4c-0.4,0.3-0.9,0.6-1.4,0.8c-0.5,0.2-1,0.4-1.6,0.5c-0.6,0.1-1.2,0.2-1.9,0.2c-1.1,0-2.1-0.2-3-0.6
		c-0.9-0.4-1.7-1-2.4-1.7c-0.7-0.7-1.2-1.5-1.6-2.5c-0.4-1-0.6-2-0.6-3.1c0-1.1,0.2-2.1,0.6-3.1c0.4-1,0.9-1.8,1.6-2.5
		c0.7-0.7,1.5-1.3,2.4-1.7c0.9-0.4,2-0.6,3.1-0.6c0.7,0,1.3,0.1,1.9,0.2c0.6,0.1,1.1,0.3,1.6,0.5c0.5,0.2,0.9,0.5,1.3,0.8
		c0.4,0.3,0.8,0.6,1.2,1l-1.2,1.3c-0.7-0.6-1.4-1.1-2.1-1.5c-0.7-0.4-1.6-0.6-2.7-0.6c-0.8,0-1.6,0.2-2.3,0.5
		c-0.7,0.3-1.3,0.8-1.9,1.3c-0.5,0.6-0.9,1.2-1.2,2c-0.3,0.8-0.4,1.6-0.4,2.5c0,0.9,0.1,1.7,0.4,2.5c0.3,0.8,0.7,1.4,1.2,2
		c0.5,0.6,1.2,1,1.9,1.3c0.7,0.3,1.5,0.5,2.3,0.5c1,0,1.9-0.2,2.7-0.6c0.8-0.4,1.5-0.9,2.2-1.6l1.1,1.1
		C221.9,399.7,221.5,400,221.1,400.4z"/>
	<path class="st0" d="M235.1,398.3c-0.3,0.7-0.7,1.3-1.2,1.9c-0.5,0.5-1.1,1-1.9,1.3c-0.7,0.3-1.5,0.5-2.4,0.5s-1.6-0.2-2.3-0.5
		c-0.7-0.3-1.3-0.7-1.8-1.3c-0.5-0.5-0.9-1.1-1.2-1.9c-0.3-0.7-0.4-1.5-0.4-2.3c0-0.8,0.1-1.6,0.4-2.3c0.3-0.7,0.7-1.3,1.2-1.9
		c0.5-0.5,1.1-1,1.9-1.3c0.7-0.3,1.5-0.5,2.4-0.5c0.8,0,1.6,0.2,2.3,0.5c0.7,0.3,1.3,0.7,1.9,1.3c0.5,0.5,0.9,1.1,1.2,1.9
		c0.3,0.7,0.4,1.5,0.4,2.3C235.5,396.8,235.4,397.6,235.1,398.3z M233.5,394.4c-0.2-0.5-0.5-1-0.9-1.4c-0.4-0.4-0.8-0.7-1.3-0.9
		c-0.5-0.2-1.1-0.3-1.7-0.3c-0.6,0-1.2,0.1-1.7,0.3c-0.5,0.2-0.9,0.5-1.3,0.9c-0.4,0.4-0.6,0.9-0.8,1.4c-0.2,0.5-0.3,1.1-0.3,1.7
		c0,0.6,0.1,1.2,0.3,1.7c0.2,0.5,0.5,1,0.9,1.4c0.4,0.4,0.8,0.7,1.3,0.9c0.5,0.2,1.1,0.3,1.7,0.3c0.6,0,1.2-0.1,1.7-0.3
		c0.5-0.2,0.9-0.5,1.3-0.9c0.4-0.4,0.6-0.9,0.8-1.4c0.2-0.5,0.3-1.1,0.3-1.7C233.8,395.5,233.7,394.9,233.5,394.4z"/>
	<path class="st0" d="M238.3,401.7v-15.9h1.7v15.9H238.3z"/>
	<path class="st0" d="M243.7,401.7v-15.9h1.7v15.9H243.7z"/>
	<path class="st0" d="M250.4,398.3c0.2,0.5,0.5,0.9,0.9,1.2c0.4,0.3,0.8,0.6,1.2,0.7c0.4,0.2,0.9,0.3,1.4,0.3c0.8,0,1.5-0.1,2-0.4
		c0.6-0.3,1.1-0.7,1.5-1.2l1,0.9c-0.6,0.6-1.2,1.1-1.9,1.5c-0.7,0.4-1.6,0.6-2.7,0.6c-0.8,0-1.5-0.1-2.2-0.4
		c-0.7-0.3-1.3-0.7-1.8-1.2c-0.5-0.5-0.9-1.1-1.2-1.9c-0.3-0.7-0.4-1.5-0.4-2.4c0-0.8,0.1-1.6,0.4-2.3c0.3-0.7,0.6-1.3,1.1-1.9
		c0.5-0.5,1.1-0.9,1.7-1.2c0.7-0.3,1.4-0.5,2.2-0.5c0.8,0,1.6,0.2,2.2,0.5c0.7,0.3,1.2,0.7,1.7,1.3c0.4,0.5,0.8,1.2,1,1.9
		c0.2,0.7,0.3,1.5,0.3,2.3c0,0.1,0,0.2,0,0.2c0,0.1,0,0.2,0,0.3H250C250,397.3,250.2,397.8,250.4,398.3z M257.2,395.4
		c0-0.5-0.1-1-0.3-1.5c-0.2-0.5-0.4-0.9-0.7-1.2c-0.3-0.3-0.7-0.6-1.1-0.8c-0.4-0.2-0.9-0.3-1.5-0.3c-0.5,0-0.9,0.1-1.4,0.3
		c-0.4,0.2-0.8,0.5-1.1,0.8c-0.3,0.3-0.6,0.7-0.8,1.2c-0.2,0.5-0.3,1-0.4,1.5H257.2z"/>
	<path class="st0" d="M269.2,401.3c-0.7,0.4-1.6,0.6-2.7,0.6c-0.8,0-1.6-0.2-2.3-0.5c-0.7-0.3-1.3-0.7-1.8-1.3
		c-0.5-0.5-0.9-1.1-1.2-1.9c-0.3-0.7-0.4-1.5-0.4-2.3c0-0.8,0.1-1.6,0.4-2.3c0.3-0.7,0.7-1.3,1.2-1.9c0.5-0.5,1.1-1,1.8-1.3
		c0.7-0.3,1.5-0.5,2.3-0.5c0.5,0,1,0.1,1.5,0.2c0.4,0.1,0.8,0.2,1.2,0.4c0.4,0.2,0.7,0.4,1,0.6c0.3,0.2,0.6,0.5,0.8,0.8l-1.1,1.2
		c-0.4-0.5-0.9-0.9-1.5-1.2c-0.5-0.3-1.2-0.5-1.9-0.5c-0.6,0-1.1,0.1-1.6,0.3c-0.5,0.2-0.9,0.5-1.3,0.9c-0.4,0.4-0.6,0.9-0.8,1.4
		c-0.2,0.5-0.3,1.1-0.3,1.7c0,0.6,0.1,1.2,0.3,1.7c0.2,0.5,0.5,1,0.9,1.4c0.4,0.4,0.8,0.7,1.3,0.9c0.5,0.2,1,0.3,1.6,0.3
		c0.7,0,1.4-0.2,1.9-0.5c0.6-0.3,1.1-0.7,1.5-1.2l1.1,1C270.6,400.4,269.9,400.9,269.2,401.3z"/>
	<path class="st0" d="M275.8,398.5c0,0.7,0.2,1.2,0.5,1.5c0.4,0.3,0.8,0.4,1.4,0.4c0.3,0,0.6,0,0.8-0.1c0.3-0.1,0.5-0.2,0.8-0.3v1.4
		c-0.3,0.2-0.6,0.3-0.9,0.4c-0.3,0.1-0.7,0.1-1.1,0.1c-0.4,0-0.9-0.1-1.3-0.2c-0.4-0.1-0.7-0.3-1-0.6c-0.3-0.3-0.5-0.6-0.7-1
		c-0.2-0.4-0.2-0.9-0.2-1.5v-6.8h-1.6v-1.5h1.6V387h1.7v3.4h3.6v1.5h-3.6V398.5z"/>
	<path class="st0" d="M281.8,401.7v-2.3h2v2.3H281.8z"/>
	<path class="st0" d="M303.9,401.7l-4.4-5.9h-4.4v5.9h-1.7v-15.2h6.6c0.8,0,1.6,0.1,2.3,0.3c0.7,0.2,1.2,0.5,1.7,0.9
		c0.5,0.4,0.8,0.9,1.1,1.4c0.3,0.6,0.4,1.2,0.4,1.9c0,0.6-0.1,1.2-0.3,1.7c-0.2,0.5-0.5,0.9-0.9,1.3c-0.4,0.4-0.8,0.7-1.3,0.9
		c-0.5,0.2-1.1,0.4-1.7,0.5l4.7,6.2H303.9z M302.7,388.8c-0.7-0.5-1.6-0.8-2.9-0.8h-4.7v6.2h4.7c0.6,0,1.1-0.1,1.6-0.2
		c0.5-0.1,0.9-0.4,1.2-0.6c0.4-0.3,0.6-0.6,0.8-1c0.2-0.4,0.3-0.8,0.3-1.3C303.8,390.1,303.4,389.4,302.7,388.8z"/>
	<path class="st0" d="M309.8,398.3c0.2,0.5,0.5,0.9,0.9,1.2c0.4,0.3,0.8,0.6,1.2,0.7c0.4,0.2,0.9,0.3,1.4,0.3c0.8,0,1.5-0.1,2-0.4
		c0.6-0.3,1.1-0.7,1.5-1.2l1,0.9c-0.6,0.6-1.2,1.1-1.9,1.5c-0.7,0.4-1.6,0.6-2.7,0.6c-0.8,0-1.5-0.1-2.2-0.4
		c-0.7-0.3-1.3-0.7-1.8-1.2s-0.9-1.1-1.2-1.9c-0.3-0.7-0.4-1.5-0.4-2.4c0-0.8,0.1-1.6,0.4-2.3c0.3-0.7,0.6-1.3,1.1-1.9
		c0.5-0.5,1.1-0.9,1.7-1.2c0.7-0.3,1.4-0.5,2.2-0.5c0.8,0,1.6,0.2,2.2,0.5c0.7,0.3,1.2,0.7,1.7,1.3c0.4,0.5,0.8,1.2,1,1.9
		c0.2,0.7,0.3,1.5,0.3,2.3c0,0.1,0,0.2,0,0.2c0,0.1,0,0.2,0,0.3h-8.9C309.4,397.3,309.5,397.8,309.8,398.3z M316.5,395.4
		c0-0.5-0.1-1-0.3-1.5c-0.2-0.5-0.4-0.9-0.7-1.2c-0.3-0.3-0.7-0.6-1.1-0.8c-0.4-0.2-0.9-0.3-1.5-0.3c-0.5,0-0.9,0.1-1.4,0.3
		c-0.4,0.2-0.8,0.5-1.1,0.8c-0.3,0.3-0.6,0.7-0.8,1.2c-0.2,0.5-0.3,1-0.4,1.5H316.5z"/>
	<path class="st0" d="M328.6,401.3c-0.7,0.4-1.6,0.6-2.7,0.6c-0.8,0-1.6-0.2-2.3-0.5c-0.7-0.3-1.3-0.7-1.8-1.3
		c-0.5-0.5-0.9-1.1-1.2-1.9c-0.3-0.7-0.4-1.5-0.4-2.3c0-0.8,0.1-1.6,0.4-2.3c0.3-0.7,0.7-1.3,1.2-1.9c0.5-0.5,1.1-1,1.8-1.3
		c0.7-0.3,1.5-0.5,2.3-0.5c0.5,0,1,0.1,1.5,0.2c0.4,0.1,0.8,0.2,1.2,0.4c0.4,0.2,0.7,0.4,1,0.6c0.3,0.2,0.6,0.5,0.8,0.8l-1.1,1.2
		c-0.4-0.5-0.9-0.9-1.5-1.2c-0.5-0.3-1.2-0.5-1.9-0.5c-0.6,0-1.1,0.1-1.6,0.3c-0.5,0.2-0.9,0.5-1.3,0.9c-0.4,0.4-0.6,0.9-0.8,1.4
		c-0.2,0.5-0.3,1.1-0.3,1.7c0,0.6,0.1,1.2,0.3,1.7c0.2,0.5,0.5,1,0.9,1.4c0.4,0.4,0.8,0.7,1.3,0.9c0.5,0.2,1,0.3,1.6,0.3
		c0.7,0,1.4-0.2,1.9-0.5c0.6-0.3,1.1-0.7,1.5-1.2l1.1,1C329.9,400.4,329.3,400.9,328.6,401.3z"/>
	<path class="st0" d="M338.3,402c-0.5,1.2-1,2-1.6,2.5c-0.6,0.5-1.3,0.7-2.1,0.7c-0.5,0-0.9,0-1.3-0.1c-0.4-0.1-0.8-0.2-1.1-0.4
		l0.6-1.3c0.3,0.1,0.5,0.3,0.8,0.3c0.3,0.1,0.6,0.1,0.9,0.1c0.5,0,0.9-0.2,1.3-0.5c0.3-0.3,0.7-0.9,1-1.7l-5.1-11.2h1.8l4.1,9.4
		l3.6-9.4h1.8L338.3,402z"/>
	<path class="st0" d="M352.4,401.3c-0.7,0.4-1.6,0.6-2.7,0.6c-0.8,0-1.6-0.2-2.3-0.5c-0.7-0.3-1.3-0.7-1.8-1.3
		c-0.5-0.5-0.9-1.1-1.2-1.9c-0.3-0.7-0.4-1.5-0.4-2.3c0-0.8,0.1-1.6,0.4-2.3c0.3-0.7,0.7-1.3,1.2-1.9c0.5-0.5,1.1-1,1.8-1.3
		c0.7-0.3,1.5-0.5,2.3-0.5c0.5,0,1,0.1,1.5,0.2c0.4,0.1,0.8,0.2,1.2,0.4c0.4,0.2,0.7,0.4,1,0.6c0.3,0.2,0.6,0.5,0.8,0.8l-1.1,1.2
		c-0.4-0.5-0.9-0.9-1.5-1.2c-0.5-0.3-1.2-0.5-1.9-0.5c-0.6,0-1.1,0.1-1.6,0.3c-0.5,0.2-0.9,0.5-1.3,0.9c-0.4,0.4-0.6,0.9-0.8,1.4
		c-0.2,0.5-0.3,1.1-0.3,1.7c0,0.6,0.1,1.2,0.3,1.7c0.2,0.5,0.5,1,0.9,1.4c0.4,0.4,0.8,0.7,1.3,0.9c0.5,0.2,1,0.3,1.6,0.3
		c0.7,0,1.4-0.2,1.9-0.5c0.6-0.3,1.1-0.7,1.5-1.2l1.1,1C353.8,400.4,353.1,400.9,352.4,401.3z"/>
	<path class="st0" d="M356.9,401.7v-15.9h1.7v15.9H356.9z"/>
	<path class="st0" d="M363.5,398.3c0.2,0.5,0.5,0.9,0.9,1.2c0.4,0.3,0.8,0.6,1.2,0.7c0.4,0.2,0.9,0.3,1.4,0.3c0.8,0,1.5-0.1,2-0.4
		c0.6-0.3,1.1-0.7,1.5-1.2l1,0.9c-0.6,0.6-1.2,1.1-1.9,1.5c-0.7,0.4-1.6,0.6-2.7,0.6c-0.8,0-1.5-0.1-2.2-0.4
		c-0.7-0.3-1.3-0.7-1.8-1.2s-0.9-1.1-1.2-1.9c-0.3-0.7-0.4-1.5-0.4-2.4c0-0.8,0.1-1.6,0.4-2.3c0.3-0.7,0.6-1.3,1.1-1.9
		c0.5-0.5,1.1-0.9,1.7-1.2c0.7-0.3,1.4-0.5,2.2-0.5c0.8,0,1.6,0.2,2.2,0.5c0.7,0.3,1.2,0.7,1.7,1.3c0.4,0.5,0.8,1.2,1,1.9
		c0.2,0.7,0.3,1.5,0.3,2.3c0,0.1,0,0.2,0,0.2c0,0.1,0,0.2,0,0.3h-8.9C363.2,397.3,363.3,397.8,363.5,398.3z M370.3,395.4
		c0-0.5-0.1-1-0.3-1.5c-0.2-0.5-0.4-0.9-0.7-1.2c-0.3-0.3-0.7-0.6-1.1-0.8c-0.4-0.2-0.9-0.3-1.5-0.3c-0.5,0-0.9,0.1-1.4,0.3
		c-0.4,0.2-0.8,0.5-1.1,0.8c-0.3,0.3-0.6,0.7-0.8,1.2c-0.2,0.5-0.3,1-0.4,1.5H370.3z"/>
	<path class="st0" d="M374.2,401.7v-2.3h2v2.3H374.2z"/>
	<path class="st0" d="M387.7,386.4v15.2h-1.7v-15.2H387.7z"/>
	<path class="st0" d="M393.1,401.7h-1.7v-11.2h1.7v2c0.4-0.6,0.9-1.1,1.5-1.6c0.6-0.4,1.4-0.6,2.4-0.6c0.7,0,1.3,0.1,1.8,0.3
		c0.5,0.2,1,0.5,1.3,0.9c0.4,0.4,0.7,0.9,0.8,1.4c0.2,0.6,0.3,1.2,0.3,1.8v7h-1.7v-6.6c0-1-0.3-1.9-0.8-2.5
		c-0.5-0.6-1.3-0.9-2.3-0.9c-0.5,0-0.9,0.1-1.3,0.3c-0.4,0.2-0.8,0.4-1.1,0.7c-0.3,0.3-0.5,0.7-0.7,1.1c-0.2,0.4-0.2,0.9-0.2,1.4
		V401.7z"/>
	<path class="st0" d="M406.2,401.7h-1.7v-11.2h1.7v2c0.4-0.6,0.9-1.1,1.5-1.6c0.6-0.4,1.4-0.6,2.4-0.6c0.7,0,1.3,0.1,1.8,0.3
		c0.5,0.2,1,0.5,1.3,0.9c0.4,0.4,0.7,0.9,0.8,1.4c0.2,0.6,0.3,1.2,0.3,1.8v7h-1.7v-6.6c0-1-0.3-1.9-0.8-2.5
		c-0.5-0.6-1.3-0.9-2.3-0.9c-0.5,0-0.9,0.1-1.3,0.3c-0.4,0.2-0.8,0.4-1.1,0.7c-0.3,0.3-0.5,0.7-0.7,1.1c-0.2,0.4-0.2,0.9-0.2,1.4
		V401.7z"/>
	<path class="st0" d="M428.1,398.3c-0.3,0.7-0.7,1.3-1.2,1.9c-0.5,0.5-1.1,1-1.9,1.3c-0.7,0.3-1.5,0.5-2.4,0.5
		c-0.8,0-1.6-0.2-2.3-0.5c-0.7-0.3-1.3-0.7-1.8-1.3c-0.5-0.5-0.9-1.1-1.2-1.9c-0.3-0.7-0.4-1.5-0.4-2.3c0-0.8,0.1-1.6,0.4-2.3
		c0.3-0.7,0.7-1.3,1.2-1.9c0.5-0.5,1.1-1,1.9-1.3c0.7-0.3,1.5-0.5,2.4-0.5c0.8,0,1.6,0.2,2.3,0.5c0.7,0.3,1.3,0.7,1.9,1.3
		c0.5,0.5,0.9,1.1,1.2,1.9c0.3,0.7,0.4,1.5,0.4,2.3C428.6,396.8,428.4,397.6,428.1,398.3z M426.5,394.4c-0.2-0.5-0.5-1-0.9-1.4
		c-0.4-0.4-0.8-0.7-1.3-0.9c-0.5-0.2-1.1-0.3-1.7-0.3c-0.6,0-1.2,0.1-1.7,0.3c-0.5,0.2-0.9,0.5-1.3,0.9c-0.4,0.4-0.6,0.9-0.8,1.4
		c-0.2,0.5-0.3,1.1-0.3,1.7c0,0.6,0.1,1.2,0.3,1.7c0.2,0.5,0.5,1,0.9,1.4c0.4,0.4,0.8,0.7,1.3,0.9c0.5,0.2,1.1,0.3,1.7,0.3
		c0.6,0,1.2-0.1,1.7-0.3c0.5-0.2,0.9-0.5,1.3-0.9c0.4-0.4,0.6-0.9,0.8-1.4c0.2-0.5,0.3-1.1,0.3-1.7
		C426.8,395.5,426.7,394.9,426.5,394.4z"/>
	<path class="st0" d="M438.9,390.4h1.8l-4.9,11.3h-1.5l-4.9-11.3h1.8l3.8,9.3L438.9,390.4z"/>
	<path class="st0" d="M444.7,392c-0.5,0.2-1.1,0.4-1.6,0.6l-0.5-1.4c0.6-0.3,1.3-0.5,1.9-0.7c0.6-0.2,1.4-0.3,2.2-0.3
		c1.5,0,2.7,0.4,3.5,1.1s1.2,1.9,1.2,3.4v6.9h-1.6V400c-0.4,0.5-0.9,1-1.6,1.3c-0.7,0.4-1.5,0.6-2.5,0.6c-0.5,0-1-0.1-1.5-0.2
		c-0.5-0.1-1-0.4-1.3-0.7c-0.4-0.3-0.7-0.7-1-1.1c-0.2-0.4-0.4-1-0.4-1.5s0.1-1.1,0.3-1.6c0.2-0.5,0.6-0.8,1-1.1
		c0.4-0.3,0.9-0.5,1.5-0.7c0.6-0.2,1.2-0.2,1.9-0.2c0.7,0,1.4,0,1.9,0.1c0.5,0.1,1.1,0.2,1.6,0.3v-0.4c0-1-0.3-1.8-0.9-2.3
		c-0.6-0.5-1.4-0.8-2.5-0.8C445.9,391.8,445.3,391.8,444.7,392z M444.2,396.6c-0.6,0.4-0.8,1-0.8,1.7c0,0.4,0.1,0.7,0.2,1
		c0.2,0.3,0.4,0.5,0.6,0.7c0.3,0.2,0.6,0.3,0.9,0.4c0.3,0.1,0.7,0.2,1.1,0.2c0.5,0,1-0.1,1.5-0.2c0.5-0.2,0.9-0.4,1.2-0.6
		c0.3-0.3,0.6-0.6,0.8-1s0.3-0.8,0.3-1.2v-1.1c-0.4-0.1-0.9-0.2-1.4-0.3c-0.5-0.1-1.2-0.2-1.9-0.2
		C445.6,396,444.7,396.2,444.2,396.6z"/>
	<path class="st0" d="M456.9,398.5c0,0.7,0.2,1.2,0.5,1.5c0.4,0.3,0.8,0.4,1.4,0.4c0.3,0,0.6,0,0.8-0.1c0.3-0.1,0.5-0.2,0.8-0.3v1.4
		c-0.3,0.2-0.6,0.3-0.9,0.4c-0.3,0.1-0.7,0.1-1.1,0.1c-0.4,0-0.9-0.1-1.3-0.2c-0.4-0.1-0.7-0.3-1-0.6c-0.3-0.3-0.5-0.6-0.7-1
		s-0.2-0.9-0.2-1.5v-6.8h-1.6v-1.5h1.6V387h1.7v3.4h3.6v1.5h-3.6V398.5z"/>
	<path class="st0" d="M464.2,398.3c0.2,0.5,0.5,0.9,0.9,1.2c0.4,0.3,0.8,0.6,1.2,0.7c0.4,0.2,0.9,0.3,1.4,0.3c0.8,0,1.5-0.1,2-0.4
		c0.6-0.3,1.1-0.7,1.5-1.2l1,0.9c-0.6,0.6-1.2,1.1-1.9,1.5c-0.7,0.4-1.6,0.6-2.7,0.6c-0.8,0-1.5-0.1-2.2-0.4
		c-0.7-0.3-1.3-0.7-1.8-1.2s-0.9-1.1-1.2-1.9c-0.3-0.7-0.4-1.5-0.4-2.4c0-0.8,0.1-1.6,0.4-2.3c0.3-0.7,0.6-1.3,1.1-1.9
		c0.5-0.5,1.1-0.9,1.7-1.2c0.7-0.3,1.4-0.5,2.2-0.5c0.8,0,1.6,0.2,2.2,0.5c0.7,0.3,1.2,0.7,1.7,1.3c0.4,0.5,0.8,1.2,1,1.9
		c0.2,0.7,0.3,1.5,0.3,2.3c0,0.1,0,0.2,0,0.2c0,0.1,0,0.2,0,0.3h-8.9C463.8,397.3,463.9,397.8,464.2,398.3z M470.9,395.4
		c0-0.5-0.1-1-0.3-1.5c-0.2-0.5-0.4-0.9-0.7-1.2s-0.7-0.6-1.1-0.8c-0.4-0.2-0.9-0.3-1.5-0.3c-0.5,0-0.9,0.1-1.4,0.3
		c-0.4,0.2-0.8,0.5-1.1,0.8c-0.3,0.3-0.6,0.7-0.8,1.2c-0.2,0.5-0.3,1-0.4,1.5H470.9z"/>
	<path class="st0" d="M474.8,401.7v-2.3h2v2.3H474.8z"/>
</g>
<g>
	<path d="M231.5,272l-16-21v21h-7.2v-33.1h6.7l15.5,20.4v-20.4h7.2V272H231.5z"/>
</g>
<g>
	<path d="M258.8,272v-2.7c-0.9,1-1.9,1.8-3.2,2.3c-1.2,0.6-2.7,0.9-4.5,0.9c-1.2,0-2.3-0.2-3.4-0.5c-1.1-0.3-2-0.8-2.8-1.5
		c-0.8-0.7-1.4-1.5-1.9-2.4c-0.5-1-0.7-2.1-0.7-3.3v-0.1c0-1.4,0.3-2.6,0.8-3.6s1.2-1.8,2.1-2.5c0.9-0.7,2-1.2,3.2-1.5
		c1.2-0.3,2.6-0.5,4.1-0.5c1.3,0,2.4,0.1,3.4,0.3c1,0.2,1.9,0.4,2.8,0.8v-0.4c0-1.5-0.5-2.7-1.4-3.5c-0.9-0.8-2.3-1.2-4.1-1.2
		c-1.4,0-2.6,0.1-3.7,0.4c-1.1,0.2-2.2,0.6-3.3,1l-1.8-5.5c1.4-0.6,2.8-1.1,4.4-1.5s3.3-0.6,5.5-0.6c3.9,0,6.8,1,8.6,2.9
		c1.8,1.9,2.7,4.6,2.7,8V272H258.8z M258.9,261.8c-0.6-0.3-1.3-0.5-2.1-0.7c-0.8-0.2-1.6-0.3-2.5-0.3c-1.5,0-2.8,0.3-3.6,0.9
		c-0.9,0.6-1.3,1.5-1.3,2.6v0.1c0,1,0.4,1.7,1.1,2.3s1.7,0.8,2.8,0.8c1.7,0,3.1-0.4,4.1-1.2c1-0.8,1.5-1.9,1.5-3.2V261.8z"/>
	<path d="M282.5,272c-0.9,0.3-2,0.4-3.2,0.4c-1.1,0-2.1-0.1-3-0.4c-0.9-0.2-1.7-0.7-2.3-1.3c-0.6-0.6-1.2-1.4-1.5-2.3
		c-0.4-1-0.5-2.2-0.5-3.7v-12h-3v-6.1h3v-6.5h7.2v6.5h6v6.1h-6v10.8c0,1.6,0.8,2.5,2.3,2.5c1.3,0,2.4-0.3,3.5-0.9v5.8
		C284.3,271.4,283.4,271.8,282.5,272z"/>
	<path d="M289.7,243.9v-6.4h7.6v6.4H289.7z M289.8,272v-25.4h7.2V272H289.8z"/>
	<path d="M328.1,264.5c-0.7,1.6-1.7,3-2.9,4.2c-1.2,1.2-2.7,2.1-4.4,2.8c-1.7,0.7-3.5,1-5.5,1c-2,0-3.8-0.3-5.4-1
		c-1.7-0.7-3.1-1.6-4.3-2.8c-1.2-1.2-2.2-2.6-2.9-4.2c-0.7-1.6-1-3.3-1-5.1v-0.1c0-1.8,0.3-3.5,1-5.1c0.7-1.6,1.7-3,2.9-4.2
		c1.2-1.2,2.7-2.1,4.4-2.8c1.7-0.7,3.5-1,5.5-1c2,0,3.8,0.3,5.4,1c1.7,0.7,3.1,1.6,4.3,2.8c1.2,1.2,2.2,2.6,2.9,4.2
		c0.7,1.6,1,3.3,1,5.1v0.1C329.1,261.2,328.8,262.9,328.1,264.5z M322,259.4c0-0.9-0.2-1.8-0.5-2.7c-0.3-0.8-0.8-1.6-1.4-2.2
		c-0.6-0.6-1.3-1.2-2.1-1.5c-0.8-0.4-1.7-0.6-2.7-0.6c-1,0-2,0.2-2.8,0.5c-0.8,0.4-1.5,0.9-2.1,1.5c-0.6,0.6-1,1.4-1.3,2.2
		c-0.3,0.8-0.4,1.7-0.4,2.7v0.1c0,0.9,0.2,1.8,0.5,2.7c0.3,0.8,0.8,1.6,1.4,2.2c0.6,0.6,1.3,1.2,2.1,1.5c0.8,0.4,1.7,0.6,2.7,0.6
		c1,0,2-0.2,2.8-0.5c0.8-0.4,1.5-0.9,2.1-1.5c0.6-0.6,1-1.4,1.3-2.2C321.9,261.3,322,260.4,322,259.4L322,259.4z"/>
	<path d="M349.4,272v-14.1c0-1.7-0.4-3-1.1-3.8c-0.8-0.9-1.8-1.3-3.2-1.3s-2.5,0.4-3.3,1.3c-0.8,0.9-1.2,2.1-1.2,3.8V272h-7.2v-25.4
		h7.2v3.6c0.4-0.5,0.9-1.1,1.3-1.5c0.5-0.5,1-0.9,1.6-1.3c0.6-0.4,1.3-0.7,2-0.9c0.7-0.2,1.5-0.3,2.5-0.3c2.7,0,4.9,0.8,6.4,2.5
		c1.5,1.7,2.2,4,2.2,6.9V272H349.4z"/>
	<path d="M376.8,272v-2.7c-0.9,1-1.9,1.8-3.2,2.3c-1.2,0.6-2.7,0.9-4.5,0.9c-1.2,0-2.3-0.2-3.4-0.5s-2-0.8-2.8-1.5
		c-0.8-0.7-1.4-1.5-1.9-2.4c-0.5-1-0.7-2.1-0.7-3.3v-0.1c0-1.4,0.3-2.6,0.8-3.6c0.5-1,1.2-1.8,2.1-2.5c0.9-0.7,2-1.2,3.2-1.5
		c1.2-0.3,2.6-0.5,4.1-0.5c1.3,0,2.4,0.1,3.4,0.3c1,0.2,1.9,0.4,2.8,0.8v-0.4c0-1.5-0.5-2.7-1.4-3.5c-0.9-0.8-2.3-1.2-4.1-1.2
		c-1.4,0-2.6,0.1-3.7,0.4c-1.1,0.2-2.2,0.6-3.3,1l-1.8-5.5c1.4-0.6,2.8-1.1,4.4-1.5s3.3-0.6,5.5-0.6c3.9,0,6.8,1,8.6,2.9
		c1.8,1.9,2.7,4.6,2.7,8V272H376.8z M377,261.8c-0.6-0.3-1.3-0.5-2.1-0.7c-0.8-0.2-1.6-0.3-2.5-0.3c-1.5,0-2.8,0.3-3.6,0.9
		s-1.3,1.5-1.3,2.6v0.1c0,1,0.4,1.7,1.1,2.3c0.7,0.5,1.7,0.8,2.8,0.8c1.7,0,3.1-0.4,4.1-1.2c1-0.8,1.5-1.9,1.5-3.2V261.8z"/>
	<path d="M389.4,272v-34.5h7.2V272H389.4z"/>
</g>
<g>
	<path d="M247.5,318.5h-6.3l-7.5-21.7l-7.5,21.7h-6.3l-11.3-33.3h7.8l6.9,22.4l7.4-22.5h6.2l7.4,22.5l6.9-22.4h7.6L247.5,318.5z"/>
	<path d="M274,318.3v-2.7c-0.9,1-1.9,1.8-3.2,2.3c-1.2,0.6-2.7,0.9-4.5,0.9c-1.2,0-2.3-0.2-3.4-0.5c-1.1-0.3-2-0.8-2.8-1.5
		c-0.8-0.7-1.4-1.5-1.9-2.4c-0.5-1-0.7-2.1-0.7-3.3v-0.1c0-1.4,0.3-2.6,0.8-3.6c0.5-1,1.2-1.8,2.1-2.5c0.9-0.7,2-1.2,3.2-1.5
		c1.2-0.3,2.6-0.5,4.1-0.5c1.3,0,2.4,0.1,3.4,0.3c1,0.2,1.9,0.4,2.8,0.8v-0.4c0-1.5-0.5-2.7-1.4-3.5c-0.9-0.8-2.3-1.2-4.1-1.2
		c-1.4,0-2.6,0.1-3.7,0.4c-1.1,0.2-2.2,0.6-3.3,1l-1.8-5.5c1.4-0.6,2.8-1.1,4.4-1.5s3.3-0.6,5.5-0.6c3.9,0,6.8,1,8.6,2.9
		c1.8,1.9,2.7,4.6,2.7,8v14.7H274z M274.1,308c-0.6-0.3-1.3-0.5-2.1-0.7c-0.8-0.2-1.6-0.3-2.5-0.3c-1.5,0-2.8,0.3-3.6,0.9
		c-0.9,0.6-1.3,1.5-1.3,2.6v0.1c0,1,0.4,1.7,1.1,2.3c0.7,0.5,1.7,0.8,2.8,0.8c1.7,0,3.1-0.4,4.1-1.2c1-0.8,1.5-1.9,1.5-3.2V308z"/>
	<path d="M304.1,314.2c-0.5,1-1.2,1.9-2.1,2.5c-0.9,0.7-1.9,1.2-3.1,1.5c-1.2,0.3-2.5,0.5-3.8,0.5c-1.8,0-3.6-0.3-5.5-0.9
		c-1.9-0.6-3.7-1.6-5.4-2.9l3.1-4.7c1.4,1,2.8,1.8,4.1,2.3c1.4,0.5,2.7,0.8,3.9,0.8c1,0,1.8-0.2,2.3-0.5c0.5-0.3,0.7-0.8,0.7-1.4
		v-0.1c0-0.4-0.1-0.7-0.4-1c-0.3-0.3-0.7-0.5-1.2-0.7c-0.5-0.2-1.1-0.4-1.7-0.6c-0.6-0.2-1.3-0.4-2-0.6c-0.9-0.3-1.8-0.6-2.7-0.9
		c-0.9-0.4-1.7-0.8-2.4-1.4c-0.7-0.6-1.3-1.3-1.8-2.2c-0.5-0.9-0.7-1.9-0.7-3.1v-0.1c0-1.3,0.2-2.4,0.7-3.4c0.5-1,1.1-1.8,2-2.5
		c0.8-0.7,1.8-1.2,2.9-1.6c1.1-0.3,2.3-0.5,3.6-0.5c1.6,0,3.2,0.3,4.9,0.8c1.7,0.5,3.2,1.2,4.6,2.2l-2.7,5c-1.3-0.7-2.5-1.3-3.7-1.7
		c-1.2-0.4-2.3-0.6-3.2-0.6c-0.9,0-1.5,0.2-2,0.5c-0.4,0.3-0.7,0.7-0.7,1.3v0.1c0,0.3,0.1,0.7,0.4,0.9c0.3,0.3,0.7,0.5,1.1,0.8
		c0.5,0.2,1,0.5,1.6,0.7c0.6,0.2,1.3,0.4,2,0.7c0.9,0.3,1.8,0.6,2.7,1c0.9,0.4,1.7,0.9,2.5,1.4c0.7,0.6,1.3,1.3,1.8,2.1
		c0.5,0.8,0.7,1.8,0.7,3v0.1C304.8,312,304.6,313.2,304.1,314.2z"/>
	<path d="M320.3,318.3c-0.9,0.3-2,0.4-3.2,0.4c-1.1,0-2.1-0.1-3-0.4c-0.9-0.2-1.7-0.7-2.3-1.3c-0.6-0.6-1.2-1.4-1.5-2.3
		c-0.4-1-0.5-2.2-0.5-3.7v-12h-3v-6.1h3v-6.5h7.2v6.5h6v6.1h-6v10.8c0,1.6,0.8,2.5,2.3,2.5c1.3,0,2.4-0.3,3.5-0.9v5.8
		C322.1,317.7,321.2,318,320.3,318.3z"/>
	<path d="M350.2,307.2c0,0.3,0,0.6-0.1,0.9h-17.6c0.3,1.6,1.1,2.9,2.2,3.7c1.1,0.8,2.4,1.3,4,1.3c1.2,0,2.3-0.2,3.2-0.6
		c0.9-0.4,1.9-1.1,2.9-2l4.1,3.6c-1.2,1.5-2.6,2.6-4.3,3.5c-1.7,0.8-3.7,1.3-6,1.3c-1.9,0-3.7-0.3-5.3-0.9c-1.6-0.6-3-1.5-4.2-2.7
		c-1.2-1.2-2.1-2.5-2.8-4.1c-0.7-1.6-1-3.4-1-5.3v-0.1c0-1.8,0.3-3.5,0.9-5.1c0.6-1.6,1.5-3,2.6-4.2c1.1-1.2,2.4-2.1,4-2.8
		c1.5-0.7,3.2-1,5.1-1c2.1,0,3.9,0.4,5.5,1.1c1.5,0.8,2.8,1.8,3.9,3.1s1.8,2.7,2.3,4.4c0.5,1.7,0.7,3.4,0.7,5.2v0.1
		C350.2,306.6,350.2,306.9,350.2,307.2z M341.5,299.7c-0.9-1-2.1-1.5-3.6-1.5c-1.5,0-2.7,0.5-3.7,1.5c-0.9,1-1.5,2.3-1.8,3.9h10.8
		C343,302,342.5,300.7,341.5,299.7z"/>
</g>
<g>
	<path d="M386.6,318.8l-3.5-3.5c-1.2,1-2.6,1.8-4,2.4c-1.5,0.6-3.1,0.9-4.8,0.9c-1.4,0-2.8-0.2-4-0.6c-1.2-0.4-2.3-1-3.2-1.7
		c-0.9-0.8-1.6-1.7-2.1-2.8c-0.5-1.1-0.8-2.3-0.8-3.6c0-2,0.5-3.6,1.5-5c1-1.4,2.5-2.5,4.4-3.3c-0.7-1.1-1.3-2.1-1.6-3
		c-0.3-1-0.5-2-0.5-3c0-1,0.2-2,0.6-3c0.4-1,1-1.8,1.8-2.5c0.8-0.7,1.7-1.3,2.9-1.8c1.1-0.4,2.4-0.7,3.9-0.7c1.3,0,2.5,0.2,3.5,0.6
		c1,0.4,1.9,0.9,2.7,1.6c0.7,0.7,1.3,1.5,1.7,2.4c0.4,0.9,0.6,1.9,0.6,3c0,2-0.6,3.7-1.8,5c-1.2,1.3-2.7,2.3-4.6,3l4,4
		c0.5-0.8,1-1.6,1.5-2.5c0.5-0.9,1-1.8,1.5-2.7l4.9,2.7c-0.6,1.1-1.2,2.1-1.9,3.2c-0.7,1.1-1.4,2.1-2.1,3.1l4.4,4.4L386.6,318.8z
		 M373.6,305.7c-1,0.5-1.7,1.1-2.2,1.8c-0.4,0.7-0.6,1.4-0.6,2.2c0,1.1,0.4,2,1.2,2.6c0.8,0.6,1.8,1,3,1c0.7,0,1.5-0.2,2.2-0.5
		c0.7-0.3,1.4-0.7,2.1-1.3L373.6,305.7z M378.9,293.5c-0.5-0.5-1.2-0.7-2-0.7c-0.9,0-1.6,0.3-2.1,0.9c-0.5,0.6-0.8,1.3-0.8,2.2
		c0,0.7,0.1,1.3,0.4,1.9c0.3,0.6,0.7,1.2,1.4,1.9c1.3-0.5,2.3-1,3-1.7s1-1.4,1-2.4C379.7,294.7,379.5,294,378.9,293.5z"/>
</g>
<g>
	<path d="M424.4,318.2l-7.1-10.6h-5.7v10.6h-7.3v-33.1h15.1c3.9,0,7,1,9.2,2.9c2.2,1.9,3.3,4.6,3.3,8v0.1c0,2.7-0.7,4.9-2,6.6
		c-1.3,1.7-3,2.9-5.1,3.7l8.1,11.8H424.4z M424.5,296.4c0-1.6-0.5-2.8-1.5-3.5c-1-0.8-2.4-1.2-4.2-1.2h-7.2v9.5h7.4
		c1.8,0,3.2-0.4,4.1-1.3C424.1,299.1,424.5,298,424.5,296.4L424.5,296.4z"/>
	<path d="M460,307.2c0,0.3,0,0.6-0.1,0.9h-17.6c0.3,1.6,1.1,2.9,2.2,3.7c1.1,0.8,2.4,1.3,4,1.3c1.2,0,2.3-0.2,3.2-0.6
		c0.9-0.4,1.9-1.1,2.9-2l4.1,3.6c-1.2,1.5-2.6,2.6-4.3,3.5c-1.7,0.8-3.7,1.3-6,1.3c-1.9,0-3.7-0.3-5.3-0.9c-1.6-0.6-3-1.5-4.2-2.7
		c-1.2-1.2-2.1-2.5-2.8-4.1c-0.7-1.6-1-3.4-1-5.3v-0.1c0-1.8,0.3-3.5,0.9-5.1c0.6-1.6,1.5-3,2.6-4.2c1.1-1.2,2.4-2.1,4-2.8
		c1.5-0.7,3.2-1,5.1-1c2.1,0,3.9,0.4,5.5,1.1s2.8,1.8,3.9,3.1s1.8,2.7,2.3,4.4s0.7,3.4,0.7,5.2v0.1C460,306.6,460,306.9,460,307.2z
		 M451.3,299.7c-0.9-1-2.1-1.5-3.6-1.5c-1.5,0-2.7,0.5-3.7,1.5c-0.9,1-1.5,2.3-1.8,3.9H453C452.8,302,452.2,300.7,451.3,299.7z"/>
</g>
<g>
	<path d="M482.5,317.5c-1.6,0.9-3.6,1.3-6.2,1.3c-1.9,0-3.7-0.3-5.3-1c-1.6-0.7-3-1.6-4.2-2.8c-1.2-1.2-2.1-2.6-2.7-4.2
		c-0.7-1.6-1-3.3-1-5.1v-0.1c0-1.8,0.3-3.5,1-5.1c0.7-1.6,1.6-3,2.7-4.2c1.2-1.2,2.6-2.1,4.2-2.8c1.6-0.7,3.4-1,5.4-1
		c2.4,0,4.4,0.4,6,1.1c1.6,0.8,3,1.8,4.2,3.1l-4.4,4.7c-0.8-0.9-1.7-1.5-2.5-2c-0.9-0.5-1.9-0.8-3.2-0.8c-0.9,0-1.7,0.2-2.5,0.5
		c-0.7,0.4-1.4,0.9-1.9,1.5c-0.6,0.6-1,1.4-1.3,2.2c-0.3,0.8-0.4,1.7-0.4,2.7v0.1c0,1,0.2,1.9,0.4,2.7s0.7,1.6,1.3,2.2
		c0.6,0.6,1.2,1.1,2,1.5c0.8,0.4,1.7,0.5,2.6,0.5c1.2,0,2.2-0.2,3.1-0.7c0.9-0.5,1.8-1.1,2.7-2l4.2,4.3
		C485.5,315.5,484.1,316.6,482.5,317.5z"/>
</g>
<g>
	<path d="M503.6,318.9c-0.5,1.3-1,2.4-1.5,3.3s-1.1,1.6-1.8,2.2c-0.6,0.6-1.4,1-2.2,1.2c-0.8,0.3-1.8,0.4-2.8,0.4
		c-1.3,0-2.5-0.2-3.5-0.5c-1-0.3-2-0.7-2.9-1.3l2.4-5.2c0.5,0.3,1,0.5,1.5,0.7c0.6,0.2,1.1,0.3,1.5,0.3c0.6,0,1.1-0.1,1.5-0.4
		c0.4-0.2,0.7-0.7,1-1.3l-9.9-25.4h7.6l5.8,17.3l5.5-17.3h7.5L503.6,318.9z"/>
</g>
<g>
	<path d="M532.4,317.5c-1.6,0.9-3.6,1.3-6.2,1.3c-1.9,0-3.7-0.3-5.3-1c-1.6-0.7-3-1.6-4.2-2.8s-2.1-2.6-2.7-4.2
		c-0.7-1.6-1-3.3-1-5.1v-0.1c0-1.8,0.3-3.5,1-5.1c0.7-1.6,1.6-3,2.7-4.2c1.2-1.2,2.6-2.1,4.2-2.8c1.6-0.7,3.4-1,5.4-1
		c2.4,0,4.4,0.4,6,1.1c1.6,0.8,3,1.8,4.2,3.1l-4.4,4.7c-0.8-0.9-1.7-1.5-2.5-2c-0.9-0.5-1.9-0.8-3.2-0.8c-0.9,0-1.7,0.2-2.5,0.5
		c-0.7,0.4-1.4,0.9-1.9,1.5c-0.6,0.6-1,1.4-1.3,2.2c-0.3,0.8-0.4,1.7-0.4,2.7v0.1c0,1,0.2,1.9,0.4,2.7s0.7,1.6,1.3,2.2
		c0.6,0.6,1.2,1.1,2,1.5c0.8,0.4,1.7,0.5,2.6,0.5c1.2,0,2.2-0.2,3.1-0.7c0.9-0.5,1.8-1.1,2.7-2l4.2,4.3
		C535.4,315.5,534,316.6,532.4,317.5z"/>
	<path d="M540.8,318.2v-34.5h7.2v34.5H540.8z"/>
	<path d="M554,290.1v-6.4h7.6v6.4H554z M554.1,318.2v-25.4h7.2v25.4H554.1z"/>
	<path d="M583.2,318.2v-14.1c0-1.7-0.4-3-1.1-3.8c-0.8-0.9-1.8-1.3-3.2-1.3c-1.4,0-2.5,0.4-3.3,1.3c-0.8,0.9-1.2,2.1-1.2,3.8v14.1
		h-7.2v-25.4h7.2v3.6c0.4-0.5,0.9-1.1,1.3-1.5c0.5-0.5,1-0.9,1.6-1.3c0.6-0.4,1.3-0.7,2-0.9c0.7-0.2,1.5-0.3,2.5-0.3
		c2.7,0,4.9,0.8,6.4,2.5c1.5,1.7,2.2,4,2.2,6.9v16.4H583.2z"/>
	<path d="M620.4,318.6c-0.6,1.7-1.5,3.1-2.6,4.1c-1.2,1.1-2.7,1.9-4.4,2.4c-1.8,0.5-3.8,0.8-6.2,0.8c-2.1,0-4.1-0.2-6-0.7
		c-1.9-0.5-3.6-1.1-5.3-2l2.5-5.4c1.3,0.7,2.7,1.3,4,1.7c1.3,0.4,2.9,0.6,4.6,0.6c2.5,0,4.3-0.6,5.5-1.7c1.2-1.2,1.8-2.9,1.8-5.2
		V312c-1.1,1.3-2.2,2.3-3.5,3c-1.3,0.7-2.9,1.1-4.8,1.1c-1.5,0-2.9-0.3-4.3-0.8c-1.4-0.5-2.6-1.3-3.6-2.3c-1-1-1.9-2.2-2.5-3.7
		c-0.6-1.5-0.9-3.1-0.9-5v-0.1c0-1.9,0.3-3.6,0.9-5c0.6-1.5,1.5-2.7,2.5-3.7c1-1,2.2-1.8,3.6-2.3c1.4-0.5,2.8-0.8,4.2-0.8
		c2,0,3.6,0.4,4.8,1.1c1.3,0.7,2.4,1.6,3.4,2.7v-3.3h7.2v19.6C621.3,314.9,621,317,620.4,318.6z M614.2,304.2c0-0.9-0.2-1.6-0.5-2.4
		c-0.3-0.7-0.8-1.3-1.3-1.9c-0.6-0.5-1.2-0.9-2-1.2c-0.8-0.3-1.6-0.4-2.5-0.4c-0.9,0-1.7,0.1-2.4,0.4c-0.7,0.3-1.4,0.7-1.9,1.2
		c-0.5,0.5-1,1.1-1.3,1.9c-0.3,0.7-0.5,1.5-0.5,2.4v0.1c0,1.8,0.6,3.2,1.8,4.3c1.2,1.1,2.6,1.6,4.4,1.6c0.9,0,1.7-0.1,2.5-0.4
		c0.8-0.3,1.4-0.7,2-1.2c0.5-0.5,1-1.1,1.3-1.9C614,306,614.2,305.2,614.2,304.2L614.2,304.2z"/>
</g>
<g>
	<path d="M235.7,364.5l-3-7.4h-14l-3,7.4h-7.4l14.2-33.3h6.7l14.2,33.3H235.7z M225.7,339.9l-4.4,10.7h8.8L225.7,339.9z"/>
</g>
<g>
	<path d="M263.7,360.5c-0.5,1-1.2,1.9-2.1,2.5c-0.9,0.7-1.9,1.2-3.1,1.5c-1.2,0.3-2.5,0.5-3.8,0.5c-1.8,0-3.6-0.3-5.5-0.9
		c-1.9-0.6-3.7-1.6-5.4-2.9l3.1-4.7c1.4,1,2.8,1.8,4.1,2.3c1.4,0.5,2.7,0.8,3.9,0.8c1,0,1.8-0.2,2.3-0.5c0.5-0.3,0.7-0.8,0.7-1.4
		v-0.1c0-0.4-0.1-0.7-0.4-1c-0.3-0.3-0.7-0.5-1.2-0.7c-0.5-0.2-1.1-0.4-1.7-0.6c-0.6-0.2-1.3-0.4-2-0.6c-0.9-0.3-1.8-0.6-2.7-0.9
		c-0.9-0.4-1.7-0.8-2.4-1.4c-0.7-0.6-1.3-1.3-1.8-2.2c-0.5-0.9-0.7-1.9-0.7-3.1v-0.1c0-1.3,0.2-2.4,0.7-3.4c0.5-1,1.1-1.8,2-2.5
		c0.8-0.7,1.8-1.2,2.9-1.6c1.1-0.3,2.3-0.5,3.6-0.5c1.6,0,3.2,0.3,4.9,0.8c1.7,0.5,3.2,1.2,4.6,2.2l-2.7,5c-1.3-0.7-2.5-1.3-3.7-1.7
		c-1.2-0.4-2.3-0.6-3.2-0.6c-0.9,0-1.5,0.2-2,0.5c-0.4,0.3-0.7,0.7-0.7,1.3v0.1c0,0.3,0.1,0.7,0.4,0.9c0.3,0.3,0.7,0.5,1.1,0.8
		c0.5,0.2,1,0.5,1.6,0.7c0.6,0.2,1.3,0.4,2,0.7c0.9,0.3,1.8,0.6,2.7,1c0.9,0.4,1.7,0.9,2.5,1.4c0.7,0.6,1.3,1.3,1.8,2.1
		c0.5,0.8,0.7,1.8,0.7,3v0.1C264.4,358.2,264.1,359.4,263.7,360.5z"/>
	<path d="M286,360.5c-0.5,1-1.2,1.9-2.1,2.5c-0.9,0.7-1.9,1.2-3.1,1.5c-1.2,0.3-2.5,0.5-3.8,0.5c-1.8,0-3.6-0.3-5.5-0.9
		c-1.9-0.6-3.7-1.6-5.4-2.9l3.1-4.7c1.4,1,2.8,1.8,4.1,2.3c1.4,0.5,2.7,0.8,3.9,0.8c1,0,1.8-0.2,2.3-0.5c0.5-0.3,0.7-0.8,0.7-1.4
		v-0.1c0-0.4-0.1-0.7-0.4-1c-0.3-0.3-0.7-0.5-1.2-0.7s-1.1-0.4-1.7-0.6c-0.6-0.2-1.3-0.4-2-0.6c-0.9-0.3-1.8-0.6-2.7-0.9
		c-0.9-0.4-1.7-0.8-2.4-1.4c-0.7-0.6-1.3-1.3-1.8-2.2c-0.5-0.9-0.7-1.9-0.7-3.1v-0.1c0-1.3,0.2-2.4,0.7-3.4c0.5-1,1.1-1.8,2-2.5
		c0.8-0.7,1.8-1.2,2.9-1.6c1.1-0.3,2.3-0.5,3.6-0.5c1.6,0,3.2,0.3,4.9,0.8c1.7,0.5,3.2,1.2,4.6,2.2l-2.7,5c-1.3-0.7-2.5-1.3-3.7-1.7
		c-1.2-0.4-2.3-0.6-3.2-0.6c-0.9,0-1.5,0.2-2,0.5c-0.4,0.3-0.7,0.7-0.7,1.3v0.1c0,0.3,0.1,0.7,0.4,0.9c0.3,0.3,0.7,0.5,1.1,0.8
		c0.5,0.2,1,0.5,1.6,0.7s1.3,0.4,2,0.7c0.9,0.3,1.8,0.6,2.7,1c0.9,0.4,1.7,0.9,2.5,1.4c0.7,0.6,1.3,1.3,1.8,2.1
		c0.5,0.8,0.7,1.8,0.7,3v0.1C286.7,358.2,286.5,359.4,286,360.5z"/>
	<path d="M316.1,357c-0.7,1.6-1.7,3-2.9,4.2c-1.2,1.2-2.7,2.1-4.4,2.8c-1.7,0.7-3.5,1-5.5,1c-2,0-3.8-0.3-5.4-1
		c-1.7-0.7-3.1-1.6-4.3-2.8c-1.2-1.2-2.2-2.6-2.9-4.2c-0.7-1.6-1-3.3-1-5.1v-0.1c0-1.8,0.3-3.5,1-5.1c0.7-1.6,1.7-3,2.9-4.2
		c1.2-1.2,2.7-2.1,4.4-2.8c1.7-0.7,3.5-1,5.5-1c2,0,3.8,0.3,5.4,1c1.7,0.7,3.1,1.6,4.3,2.8c1.2,1.2,2.2,2.6,2.9,4.2
		c0.7,1.6,1,3.3,1,5.1v0.1C317.2,353.7,316.8,355.4,316.1,357z M310.1,351.9c0-0.9-0.2-1.8-0.5-2.7c-0.3-0.8-0.8-1.6-1.4-2.2
		c-0.6-0.6-1.3-1.2-2.1-1.5c-0.8-0.4-1.7-0.6-2.7-0.6c-1,0-2,0.2-2.8,0.5s-1.5,0.9-2.1,1.5c-0.6,0.6-1,1.4-1.3,2.2
		c-0.3,0.8-0.4,1.7-0.4,2.7v0.1c0,0.9,0.2,1.8,0.5,2.7c0.3,0.8,0.8,1.6,1.4,2.2c0.6,0.6,1.3,1.2,2.1,1.5c0.8,0.4,1.7,0.6,2.7,0.6
		c1,0,2-0.2,2.8-0.5c0.8-0.4,1.5-0.9,2.1-1.5c0.6-0.6,1-1.4,1.3-2.2C309.9,353.8,310.1,352.9,310.1,351.9L310.1,351.9z"/>
	<path d="M339.6,363.8c-1.6,0.9-3.6,1.3-6.2,1.3c-1.9,0-3.7-0.3-5.3-1c-1.6-0.7-3-1.6-4.2-2.8c-1.2-1.2-2.1-2.6-2.7-4.2
		c-0.7-1.6-1-3.3-1-5.1v-0.1c0-1.8,0.3-3.5,1-5.1c0.7-1.6,1.6-3,2.7-4.2c1.2-1.2,2.6-2.1,4.2-2.8c1.6-0.7,3.4-1,5.4-1
		c2.4,0,4.4,0.4,6,1.1c1.6,0.8,3,1.8,4.2,3.1l-4.4,4.7c-0.8-0.9-1.7-1.5-2.5-2c-0.9-0.5-1.9-0.8-3.2-0.8c-0.9,0-1.7,0.2-2.5,0.5
		c-0.7,0.4-1.4,0.9-1.9,1.5c-0.6,0.6-1,1.4-1.3,2.2c-0.3,0.8-0.4,1.7-0.4,2.7v0.1c0,1,0.2,1.9,0.4,2.7c0.3,0.9,0.7,1.6,1.3,2.2
		c0.6,0.6,1.2,1.1,2,1.5c0.8,0.4,1.7,0.5,2.6,0.5c1.2,0,2.2-0.2,3.1-0.7c0.9-0.5,1.8-1.1,2.7-2l4.2,4.3
		C342.6,361.8,341.2,362.9,339.6,363.8z"/>
	<path d="M347.7,336.4V330h7.6v6.4H347.7z M347.9,364.5v-25.4h7.2v25.4H347.9z"/>
	<path d="M375.8,364.5v-2.7c-0.9,1-1.9,1.8-3.2,2.3c-1.2,0.6-2.7,0.9-4.5,0.9c-1.2,0-2.3-0.2-3.4-0.5c-1.1-0.3-2-0.8-2.8-1.5
		c-0.8-0.7-1.4-1.5-1.9-2.4c-0.5-1-0.7-2.1-0.7-3.3v-0.1c0-1.4,0.3-2.6,0.8-3.6s1.2-1.8,2.1-2.5c0.9-0.7,2-1.2,3.2-1.5
		c1.2-0.3,2.6-0.5,4.1-0.5c1.3,0,2.4,0.1,3.4,0.3c1,0.2,1.9,0.4,2.8,0.8v-0.4c0-1.5-0.5-2.7-1.4-3.5c-0.9-0.8-2.3-1.2-4.1-1.2
		c-1.4,0-2.6,0.1-3.7,0.4c-1.1,0.2-2.2,0.6-3.3,1l-1.8-5.5c1.4-0.6,2.8-1.1,4.4-1.5c1.5-0.4,3.3-0.6,5.5-0.6c3.9,0,6.8,1,8.6,2.9
		c1.8,1.9,2.7,4.6,2.7,8v14.7H375.8z M376,354.3c-0.6-0.3-1.3-0.5-2.1-0.7c-0.8-0.2-1.6-0.3-2.5-0.3c-1.5,0-2.8,0.3-3.6,0.9
		c-0.9,0.6-1.3,1.5-1.3,2.6v0.1c0,1,0.4,1.7,1.1,2.3c0.7,0.5,1.7,0.8,2.8,0.8c1.7,0,3.1-0.4,4.1-1.2c1-0.8,1.5-1.9,1.5-3.2V354.3z"
		/>
	<path d="M399.6,364.5c-0.9,0.3-2,0.4-3.2,0.4c-1.1,0-2.1-0.1-3-0.4c-0.9-0.2-1.7-0.7-2.3-1.3c-0.6-0.6-1.2-1.4-1.5-2.3
		c-0.4-1-0.5-2.2-0.5-3.7v-12h-3v-6.1h3v-6.5h7.2v6.5h6v6.1h-6v10.8c0,1.6,0.8,2.5,2.3,2.5c1.3,0,2.4-0.3,3.5-0.9v5.8
		C401.3,363.9,400.5,364.3,399.6,364.5z"/>
	<path d="M406.7,336.4V330h7.6v6.4H406.7z M406.9,364.5v-25.4h7.2v25.4H406.9z"/>
	<path d="M445.1,357c-0.7,1.6-1.7,3-2.9,4.2c-1.2,1.2-2.7,2.1-4.4,2.8c-1.7,0.7-3.5,1-5.5,1c-2,0-3.8-0.3-5.4-1
		c-1.7-0.7-3.1-1.6-4.3-2.8c-1.2-1.2-2.2-2.6-2.9-4.2c-0.7-1.6-1-3.3-1-5.1v-0.1c0-1.8,0.3-3.5,1-5.1c0.7-1.6,1.7-3,2.9-4.2
		c1.2-1.2,2.7-2.1,4.4-2.8c1.7-0.7,3.5-1,5.5-1c2,0,3.8,0.3,5.4,1c1.7,0.7,3.1,1.6,4.3,2.8c1.2,1.2,2.2,2.6,2.9,4.2
		c0.7,1.6,1,3.3,1,5.1v0.1C446.1,353.7,445.8,355.4,445.1,357z M439,351.9c0-0.9-0.2-1.8-0.5-2.7c-0.3-0.8-0.8-1.6-1.4-2.2
		c-0.6-0.6-1.3-1.2-2.1-1.5c-0.8-0.4-1.7-0.6-2.7-0.6c-1,0-2,0.2-2.8,0.5s-1.5,0.9-2.1,1.5c-0.6,0.6-1,1.4-1.3,2.2
		c-0.3,0.8-0.4,1.7-0.4,2.7v0.1c0,0.9,0.2,1.8,0.5,2.7c0.3,0.8,0.8,1.6,1.4,2.2c0.6,0.6,1.3,1.2,2.1,1.5c0.8,0.4,1.7,0.6,2.7,0.6
		c1,0,2-0.2,2.8-0.5c0.8-0.4,1.5-0.9,2.1-1.5c0.6-0.6,1-1.4,1.3-2.2C438.9,353.8,439,352.9,439,351.9L439,351.9z"/>
	<path d="M466.5,364.5v-14.1c0-1.7-0.4-3-1.1-3.8c-0.8-0.9-1.8-1.3-3.2-1.3s-2.5,0.4-3.3,1.3c-0.8,0.9-1.2,2.1-1.2,3.8v14.1h-7.2
		v-25.4h7.2v3.6c0.4-0.5,0.9-1.1,1.3-1.5c0.5-0.5,1-0.9,1.6-1.3c0.6-0.4,1.3-0.7,2-0.9c0.7-0.2,1.5-0.3,2.5-0.3
		c2.7,0,4.9,0.8,6.4,2.5c1.5,1.7,2.2,4,2.2,6.9v16.4H466.5z"/>
</g>
<rect x="21.3" y="238.6" class="st1" width="77.1" height="77.1"/>
<g>
	<path class="st2" d="M79.2,256.2l-36.4-8.6c-1.1-0.3-2.3,0.4-2.6,1.6l-0.2,1.6l40.2,9.4l0.5-1.5C81.1,257.6,80.4,256.5,79.2,256.2"
		/>
	<path class="st2" d="M43.5,304.4c0,1.2,0.9,2.1,2.1,2.1h20.7c-0.7-1.2-1.2-2.6-1.2-4.2c0-4.4,3.6-8,8-8c1.3,0,2.5,0.3,3.5,0.8
		l3.6-34.9H39L43.5,304.4z M73.4,290.6c-0.1,0-0.1,0-0.2,0c-6.5,0-11.8,5.3-11.8,11.8c0,0.1,0,0.3,0,0.4H47.2l-4-38.7h32.9
		L73.4,290.6z"/>
	<path class="st2" d="M73.2,297.9c-2.5,0-4.4,2-4.4,4.4c0,2.4,2,4.4,4.4,4.4c2.4,0,4.4-2,4.4-4.4C77.6,299.9,75.6,297.9,73.2,297.9"
		/>
	<rect x="107.3" y="324.8" class="st3" width="77.1" height="77.1"/>
	<path class="st2" d="M145.9,331.6c-1.4,0-2.6,1.2-2.6,2.6v13.9c0,1.4,1.2,2.6,2.6,2.6c1.4,0,2.6-1.2,2.6-2.6v-13.9
		C148.5,332.7,147.4,331.6,145.9,331.6"/>
	<path class="st2" d="M133.3,363.3c0-1.4-1.2-2.6-2.6-2.6h-13.9c-1.4,0-2.6,1.2-2.6,2.6c0,1.4,1.2,2.6,2.6,2.6h13.9
		C132.1,365.9,133.3,364.8,133.3,363.3"/>
	<path class="st2" d="M133.8,353.9c0.4,0.4,0.9,0.6,1.3,0.6c0.5,0,1-0.2,1.3-0.6c0.7-0.7,0.7-1.9,0-2.7l-5.9-5.9
		c-0.7-0.7-1.9-0.7-2.7,0c-0.7,0.7-0.7,1.9,0,2.7L133.8,353.9z"/>
	<path class="st2" d="M158,372.8c-0.7-0.7-1.9-0.7-2.7,0c-0.7,0.7-0.7,1.9,0,2.7l5.9,5.9c0.4,0.4,0.9,0.6,1.3,0.6
		c0.5,0,1-0.2,1.3-0.6c0.7-0.7,0.7-1.9,0-2.7L158,372.8z"/>
	<path class="st2" d="M133.8,372.8l-5.9,5.9c-0.7,0.7-0.7,1.9,0,2.7c0.4,0.4,0.9,0.6,1.3,0.6c0.5,0,1-0.2,1.3-0.6l5.9-5.9
		c0.7-0.7,0.7-1.9,0-2.7C135.7,372,134.5,372,133.8,372.8"/>
	<path class="st2" d="M145.9,376c-1.4,0-2.6,1.2-2.6,2.6v13.9c0,1.4,1.2,2.6,2.6,2.6c1.4,0,2.6-1.2,2.6-2.6v-13.9
		C148.5,377.1,147.4,376,145.9,376"/>
	<path class="st2" d="M175.1,360.7h-13.9c-1.4,0-2.6,1.2-2.6,2.6c0,1.4,1.2,2.6,2.6,2.6h13.9c1.4,0,2.6-1.2,2.6-2.6
		C177.7,361.9,176.5,360.7,175.1,360.7"/>
	<path class="st2" d="M156.7,354.4c0.5,0,1-0.2,1.3-0.6l5.9-5.9c0.7-0.7,0.7-1.9,0-2.7c-0.7-0.7-1.9-0.7-2.7,0l-5.9,5.9
		c-0.7,0.7-0.7,1.9,0,2.7C155.7,354.3,156.2,354.4,156.7,354.4"/>
	<rect x="21.3" y="324.8" class="st4" width="77.1" height="77.1"/>
	<path class="st2" d="M80.7,361.4c-6.2-17.6-33.9-24.2-35-24.5l-3.4-0.8l-1.1,3.3c-0.4,1.1-8.5,26.9,2,41.5
		c4.6,6.3,11.8,9.5,21.4,9.5c2,0,4.2-0.2,6.5-0.4l1.5-0.2l1-1.2C81.2,379,83.6,369.8,80.7,361.4 M41.6,359.6l14.5,4l6.2,11l-20-5.6
		C41.7,366,41.5,362.7,41.6,359.6 M46.7,341.2c2.7,0.8,7.9,2.4,13.4,5.2l-3.4,12.4L46.7,341.2z M58.6,362.2l4-14.5
		c2.7,1.5,5.4,3.4,7.8,5.5l-5.6,20.1L58.6,362.2z M44.2,342.6l9.9,17.6l-12.4-3.4C42.2,350.6,43.5,345.3,44.2,342.6 M43.1,372.3
		l21.2,5.9l4.7,8.3c-1.6,0.2-3,0.3-4.4,0.3C51.6,386.7,45.6,380.3,43.1,372.3 M71.5,385.1l-4.7-8.3l5.9-21.3
		C78.9,362.4,81.1,372.1,71.5,385.1"/>
</g>
<g>
	<path d="M480.7,357.4c0.1,0.1,0.2,0.3,0.4,0.4c0.2,0.1,0.4,0.2,0.8,0.4c0.3,0.1,0.7,0.2,1.2,0.3c0.5,0.1,1,0.3,1.4,0.5
		c0.4,0.2,0.8,0.4,1,0.6c0.3,0.2,0.5,0.5,0.6,0.8c0.1,0.3,0.2,0.7,0.2,1.1c0,0.5-0.1,0.9-0.3,1.3c-0.2,0.4-0.4,0.7-0.8,1
		c-0.3,0.3-0.7,0.5-1.2,0.6c-0.5,0.1-0.9,0.2-1.5,0.2c-0.8,0-1.6-0.1-2.3-0.4c-0.7-0.3-1.4-0.7-2-1.2l1.1-1.3c0.5,0.4,1,0.8,1.5,1
		c0.5,0.2,1.1,0.3,1.7,0.3c0.6,0,1-0.1,1.3-0.4c0.3-0.2,0.5-0.6,0.5-1c0-0.2,0-0.4-0.1-0.5c-0.1-0.1-0.2-0.3-0.4-0.4
		c-0.2-0.1-0.4-0.2-0.7-0.3c-0.3-0.1-0.7-0.2-1.2-0.3c-0.5-0.1-1-0.3-1.5-0.4c-0.4-0.2-0.8-0.4-1.1-0.6s-0.5-0.5-0.7-0.9
		c-0.2-0.3-0.2-0.7-0.2-1.2c0-0.5,0.1-0.9,0.3-1.2c0.2-0.4,0.4-0.7,0.7-0.9c0.3-0.3,0.7-0.5,1.1-0.6c0.4-0.1,0.9-0.2,1.4-0.2
		c0.8,0,1.4,0.1,2,0.3c0.6,0.2,1.2,0.5,1.7,1l-1,1.4c-0.5-0.3-0.9-0.6-1.4-0.8c-0.5-0.2-0.9-0.3-1.4-0.3c-0.5,0-0.9,0.1-1.2,0.4
		c-0.3,0.2-0.4,0.5-0.4,0.9C480.6,357.1,480.6,357.2,480.7,357.4z"/>
</g>
<g>
	<path d="M493.9,361.9L493.9,361.9l-3.3-4.8v7.4h-1.8v-10.3h1.9l3.1,4.9l3.1-4.9h1.9v10.3h-1.8v-7.4L493.9,361.9z"/>
</g>
<rect x="107.3" y="238.6" class="st0" width="77.1" height="77.1"/>
<g>
	<path class="st2" d="M128.4,261.1l2.6,5c3.7-5.5,9.9-8.8,16.7-8.8c1.5,0,2.9,0.2,4.4,0.5c1.5,0.3,2.9,0.8,4.2,1.4l0.3,0.2l-1.4,3
		l13.2-0.3l-8.1-10.3l-1.4,3l-0.3-0.2c-1.2-0.6-2.5-1-4-1.5c-2.2-0.6-4.5-0.9-6.7-0.9C140.2,252.2,133.2,255.5,128.4,261.1"/>
	<path class="st2" d="M122.3,277v0.4c0,1.3,0.2,2.7,0.4,4.3c2,10.7,10.5,18.9,21.2,20.4l2.9-4.8c-9.2-0.3-16.9-6.6-19-15.5
		c-0.3-1.5-0.5-3-0.5-4.4l0-0.4l3.4,0l-6-11.7L119,277L122.3,277z"/>
	<path class="st2" d="M156.3,291.7l-6.9,11.3l13.1-1.3l-1.8-2.9l0.3-0.2c1.1-0.7,2.2-1.5,3.4-2.6c8.1-7.3,10.6-18.8,6.3-28.8l-5.6,0
		c4.5,7.9,3.2,17.8-3.3,24.3c-1.1,1.1-2.3,2-3.5,2.8l-0.3,0.2L156.3,291.7z"/>
</g>
</svg>
