<?xml version="1.0" encoding="utf-8"?>
<!-- Generator: Adobe Illustrator 19.2.1, SVG Export Plug-In . SVG Version: 6.00 Build 0)  -->
<svg version="1.1" id="layer" xmlns="http://www.w3.org/2000/svg" xmlns:xlink="http://www.w3.org/1999/xlink" x="0px" y="0px"
	 viewBox="0 0 652 652" style="enable-background:new 0 0 652 652;" xml:space="preserve">
<style type="text/css">
	.st0{fill:#82BC00;}
	.st1{fill:#C5DD8C;}
	.st2{fill:#55565A;}
</style>
<g>
	<path class="st0" d="M151.4,311.3c0,19.3-26.1,22.7-27.8,0.4c-1.9-25.5-19-52.1-47.4-56.6c-3-0.5-2.9-4.8,0-5.2
		C117.4,244.4,151.4,275.6,151.4,311.3"/>
	<path class="st1" d="M104.5,379.5c-19.3,0-22.7-26.1-0.4-27.8c25.5-1.9,52.1-19,56.6-47.4c0.5-3,4.7-2.9,5.2,0
		C171.5,345.4,140.2,379.5,104.5,379.5"/>
	<path class="st0" d="M36.4,332.5c0-19.3,26.1-22.7,27.8-0.4c1.9,25.5,19,52.1,47.4,56.6c3,0.5,2.9,4.7,0,5.1
		C70.4,399.5,36.4,368.2,36.4,332.5"/>
	<path class="st1" d="M83.3,264.4c19.3,0,22.7,26.1,0.4,27.8c-25.5,1.9-52.1,19-56.6,47.4c-0.5,3-4.7,2.9-5.2,0
		C16.3,298.4,47.6,264.4,83.3,264.4"/>
</g>
<polygon class="st2" points="231.9,263.7 240.4,263.7 240.4,331.3 282.9,331.3 282.9,339.2 231.9,339.2 "/>
<polygon class="st2" points="281.9,263.7 291.2,263.7 312.8,326.6 333.5,263.5 340.5,263.5 361.2,326.6 382.8,263.7 391.7,263.7 
	364.8,339.7 357.5,339.7 336.8,278.4 316,339.7 308.9,339.7 "/>
<path class="st2" d="M425.3,263.1h8l34.4,76h-9.2l-8.8-19.9h-41.1l-9,19.9h-8.7L425.3,263.1z M446.3,311.6l-17.2-38.5l-17.3,38.5
	H446.3z"/>
<g>
	<path class="st2" d="M482.4,263.7h32.5c9.3,0,16.7,2.8,21.5,7.6c3.7,3.7,5.8,9,5.8,14.9v0.2c0,12.5-8.6,19.8-20.5,22l23.2,30.8
		h-10.5l-21.9-29.3H491v29.3h-8.5V263.7z M514.2,302.2c11.3,0,19.4-5.8,19.4-15.5v-0.2c0-9.3-7.1-14.9-19.3-14.9H491v30.6H514.2z"/>
	<path class="st2" d="M560.3,263.7h32.1c8.6,0,15.4,2.5,19.7,6.7c3.1,3.2,4.8,7.2,4.8,12.1v0.2c0,9.8-6,14.9-12,17.5
		c9,2.7,16.2,7.9,16.2,18.2v0.2c0,12.9-10.9,20.6-27.4,20.6h-33.5V263.7z M591.1,297.3c10.3,0,17.4-4.6,17.4-13.5v-0.2
		c0-7.4-5.9-12.3-16.7-12.3h-23v26H591.1z M594.1,331.5c11.4,0,18.5-5.1,18.5-13.5v-0.2c0-8.2-6.9-12.9-20.1-12.9h-23.8v26.6H594.1z
		"/>
	<path class="st2" d="M270.6,371L270.6,371c0-3.9,2.8-6.2,5.6-6.2c2.2,0,3.6,1.2,4.5,2.5v-7.1h1.8v11.6c0,1.9-2,5.3-6.3,5.3
		C273.4,377.1,270.6,374.9,270.6,371 M280.8,371L280.8,371c0-2.8-2.1-4.6-4.3-4.6c-2.3,0-4.1,1.7-4.1,4.5v0c0,2.8,1.9,4.6,4.1,4.6
		C278.7,375.6,280.8,373.7,280.8,371"/>
	<path class="st2" d="M258,370c0,0,0-5.1,5.8-5.1c2.8,0,4.5,1.9,4.5,4.7v7.3h-1.8V370c0-2.2-1.2-3.5-3.3-3.5c-2,0-3.5,1.5-3.5,3.7
		v6.7H258V370z"/>
	<path class="st2" d="M299.2,370c0,0,0-5.1,5.8-5.1c2.8,0,4.5,1.9,4.5,4.7v7.3h-1.8V370c0-2.2-1.2-3.5-3.3-3.5c-2,0-3.5,1.5-3.5,3.7
		v6.7h-1.8V370z"/>
	<polygon class="st2" points="232.1,360.9 233.9,360.9 233.9,375.2 242.9,375.2 242.9,376.9 232.1,376.9 	"/>
	<path class="st2" d="M243.6,371.1L243.6,371.1c0-3.4,2.6-6.2,6.1-6.2c3.5,0,6.1,2.8,6.1,6.1v0c0,3.3-2.6,6.1-6.2,6.1
		C246.2,377.2,243.6,374.4,243.6,371.1 M254.1,371.1L254.1,371.1c0-2.6-1.9-4.6-4.4-4.6c-2.6,0-4.3,2.1-4.3,4.6v0
		c0,2.5,1.9,4.6,4.4,4.6C252.3,375.6,254.1,373.5,254.1,371.1"/>
	<path class="st2" d="M284.7,371.1L284.7,371.1c0-3.4,2.6-6.2,6.1-6.2c3.5,0,6.1,2.8,6.1,6.1v0c0,3.3-2.6,6.1-6.2,6.1
		C287.3,377.2,284.7,374.4,284.7,371.1 M295.2,371.1L295.2,371.1c0-2.6-1.9-4.6-4.4-4.6c-2.5,0-4.3,2.1-4.3,4.6v0
		c0,2.5,1.9,4.6,4.4,4.6C293.4,375.6,295.2,373.5,295.2,371.1"/>
	<polygon class="st2" points="318.2,360.9 320.2,360.9 324.7,374.2 329.1,360.9 330.6,360.9 335,374.2 339.5,360.9 341.4,360.9 
		335.7,377 334.2,377 329.8,364.1 325.4,377 323.9,377 	"/>
	<path class="st2" d="M354.5,375.4l0.9-1.3c1.3,1,2.7,1.5,4.1,1.5c1.4,0,2.4-0.7,2.4-1.9v0c0-1.2-1.4-1.6-2.9-2.1
		c-1.8-0.5-3.9-1.2-3.9-3.3v0c0-2,1.7-3.4,4-3.4c1.4,0,3,0.5,4.2,1.3l-0.8,1.3c-1.1-0.7-2.3-1.1-3.5-1.1c-1.4,0-2.3,0.7-2.3,1.7v0
		c0,1.1,1.5,1.5,3,2c1.8,0.5,3.8,1.2,3.8,3.4v0c0,2.2-1.8,3.5-4.2,3.5C357.7,377.1,355.8,376.4,354.5,375.4"/>
	<path class="st2" d="M367.2,373.8v-7.1h-1.6v-1.5h1.6v-3.5h1.8v3.5h3.7v1.5h-3.7v6.9c0,1.4,0.8,2,2,2c0.6,0,1.1-0.1,1.7-0.4v1.5
		c-0.6,0.3-1.3,0.5-2.1,0.5C368.6,377.1,367.2,376.1,367.2,373.8"/>
	<path class="st2" d="M380.6,375.6c1.6,0,2.8-0.7,3.7-1.7l1.1,1c-1.2,1.3-2.6,2.2-4.8,2.2c-3.2,0-5.9-2.5-5.9-6.1
		c0-3.4,2.4-6.1,5.7-6.1c3.5,0,5.5,2.8,5.5,6.2c0,0.2,0,0.3,0,0.6h-9.3C376.7,374.2,378.5,375.6,380.6,375.6 M384,370.3
		c-0.2-2.1-1.4-4-3.8-4c-2,0-3.6,1.7-3.8,4H384z"/>
	<path class="st2" d="M341.9,373.5L341.9,373.5c0-2.6,2-3.9,5-3.9c1.5,0,2.6,0.2,3.6,0.5v-0.4c0-2.1-1.3-3.2-3.5-3.2
		c-1.4,0-2.5,0.3-3.6,0.8l-0.5-1.4c1.3-0.6,2.6-1,4.3-1c1.7,0,3,0.5,3.8,1.3c0.8,0.8,1.2,2,1.2,3.5v3.8c0,0,0,3.7-6,3.7
		C344,377.1,341.9,375.9,341.9,373.5 M350.5,372.6v-1.1c-0.9-0.3-2-0.5-3.4-0.5c-2.2,0-3.4,1-3.4,2.4v0c0,1.5,1.4,2.3,3,2.3
		C348.8,375.7,350.5,374.4,350.5,372.6"/>
	<path class="st2" d="M604.8,370.8L604.8,370.8c0-3.9,2.8-6.2,5.6-6.2c2.2,0,3.6,1.2,4.5,2.5V360h1.8v11.6c0,1.9-2,5.3-6.3,5.3
		C607.6,376.9,604.8,374.7,604.8,370.8 M615,370.8L615,370.8c0-2.8-2.1-4.6-4.3-4.6c-2.3,0-4.1,1.7-4.1,4.5v0c0,2.8,1.9,4.6,4.1,4.6
		C613,375.3,615,373.5,615,370.8"/>
	<path class="st2" d="M596.2,371.7c0,0,0-6.8,6.6-6.8v1.9h-0.1c-2.6,0-4.7,1.8-4.7,5.4v4.7h-1.8V371.7z"/>
	<path class="st2" d="M552.2,361h6.8c1.8,0,3.3,0.5,4.2,1.4c0.7,0.7,1,1.5,1,2.6v0c0,2.1-1.3,3.1-2.5,3.7c1.9,0.6,3.4,1.7,3.4,3.9v0
		c0,2.7-2.3,4.3-5.8,4.3h-7.1V361z M558.7,368.1c2.2,0,3.7-1,3.7-2.8v0c0-1.6-1.2-2.6-3.5-2.6H554v5.5H558.7z M559.3,375.3
		c2.4,0,3.9-1.1,3.9-2.8v0c0-1.7-1.5-2.7-4.2-2.7h-5v5.6H559.3z"/>
	<path class="st2" d="M567.6,371.1L567.6,371.1c0-3.4,2.6-6.2,6.1-6.2c3.5,0,6.1,2.8,6.1,6.1v0c0,3.3-2.6,6.1-6.2,6.1
		C570.2,377.2,567.6,374.4,567.6,371.1 M578.1,371.1L578.1,371.1c0-2.6-1.9-4.6-4.4-4.6c-2.6,0-4.3,2.1-4.3,4.6v0
		c0,2.5,1.9,4.6,4.4,4.6C576.3,375.6,578.1,373.6,578.1,371.1"/>
	<path class="st2" d="M582.1,373.5L582.1,373.5c0-2.6,2-3.9,5-3.9c1.5,0,2.6,0.2,3.6,0.5v-0.4c0-2.1-1.3-3.2-3.5-3.2
		c-1.4,0-2.5,0.3-3.6,0.8l-0.5-1.4c1.3-0.6,2.6-1,4.3-1c1.7,0,3,0.5,3.8,1.3c0.8,0.8,1.2,2,1.2,3.5v3.8c0,0,0,3.7-6,3.7
		C584.3,377.2,582.1,375.9,582.1,373.5 M590.8,372.6v-1.1c-0.9-0.3-2-0.5-3.4-0.5c-2.2,0-3.4,1-3.4,2.4v0c0,1.5,1.4,2.3,3,2.3
		C589,375.7,590.8,374.4,590.8,372.6"/>
	<path class="st2" d="M393.4,373.5L393.4,373.5c0-2.6,2-3.9,5-3.9c1.5,0,2.6,0.2,3.6,0.5v-0.4c0-2.1-1.3-3.2-3.5-3.2
		c-1.4,0-2.5,0.3-3.6,0.8l-0.5-1.4c1.3-0.6,2.6-1,4.3-1c1.7,0,3,0.5,3.8,1.3c0.8,0.8,1.2,2,1.2,3.5v3.8c0,0,0,3.7-6,3.7
		C395.6,377.2,393.4,375.9,393.4,373.5 M402.1,372.6v-1.1c-0.9-0.3-2-0.5-3.4-0.5c-2.2,0-3.4,1-3.4,2.4v0c0,1.5,1.4,2.3,3,2.3
		C400.3,375.7,402.1,374.4,402.1,372.6"/>
	<path class="st2" d="M406.6,370c0,0,0-5.1,5.8-5.1c2.8,0,4.5,1.9,4.5,4.7v7.3h-1.8V370c0-2.2-1.2-3.5-3.3-3.5c-2,0-3.5,1.5-3.5,3.7
		v6.7h-1.8V370z"/>
	<path class="st2" d="M419.3,371L419.3,371c0-3.9,2.8-6.2,5.6-6.2c2.2,0,3.6,1.2,4.5,2.5v-7.1h1.8v11.6c0,0,0,5.3-6.3,5.3
		C422.1,377.2,419.3,374.9,419.3,371 M429.5,371L429.5,371c0-2.8-2.1-4.6-4.3-4.6c-2.3,0-4.1,1.7-4.1,4.5v0c0,2.8,1.9,4.6,4.1,4.6
		C427.5,375.6,429.5,373.7,429.5,371"/>
	<path class="st2" d="M519,370c0,0,0-5.1,5.8-5.1c2.8,0,4.5,1.9,4.5,4.7v7.3h-1.7V370c0-2.2-1.2-3.5-3.2-3.5c-2,0-3.5,1.5-3.5,3.7
		v6.7H519V370z"/>
	<path class="st2" d="M440.1,361h6.8c2,0,3.5,0.6,4.5,1.6c0.8,0.8,1.2,1.9,1.2,3.1v0c0,2.6-1.8,4.2-4.3,4.6l4.9,6.5h-2.2l-4.6-6.2
		h-4.6v6.2h-1.8V361z M446.8,369.1c2.4,0,4.1-1.2,4.1-3.3v0c0-2-1.5-3.1-4.1-3.1h-4.9v6.5H446.8z"/>
	<path class="st2" d="M461.2,375.7c1.6,0,2.8-0.7,3.7-1.7l1.1,1c-1.2,1.3-2.6,2.2-4.8,2.2c-3.2,0-5.9-2.5-5.9-6.1
		c0-3.4,2.4-6.1,5.7-6.1c3.5,0,5.5,2.8,5.5,6.2c0,0.2,0,0.3,0,0.6h-9.3C457.4,374.2,459.2,375.7,461.2,375.7 M464.7,370.3
		c-0.2-2.1-1.4-4-3.8-4c-2,0-3.6,1.7-3.8,4H464.7z"/>
	<path class="st2" d="M468.8,371.1L468.8,371.1c0-3.4,2.6-6.2,6-6.2c2.2,0,3.6,0.9,4.7,2.1l-1.2,1.2c-0.9-1-2-1.8-3.6-1.8
		c-2.4,0-4.2,2-4.2,4.6v0c0,2.6,1.9,4.6,4.3,4.6c1.5,0,2.7-0.7,3.6-1.8l1.1,1.1c-1.2,1.3-2.6,2.3-4.8,2.3
		C471.4,377.2,468.8,374.4,468.8,371.1"/>
	<path class="st2" d="M481.7,380l0.6-1.4c0.6,0.3,1.1,0.4,1.8,0.4c1.1,0,1.7-0.5,2.4-2.2l-5.3-11.7h1.9l4.3,9.8l3.8-9.8h1.9
		l-4.9,12.2c-1,2.4-2.1,3.3-3.9,3.3C483.2,380.6,482.5,380.4,481.7,380"/>
	<path class="st2" d="M494.2,371.1L494.2,371.1c0-3.4,2.6-6.2,6-6.2c2.2,0,3.6,0.9,4.7,2.1l-1.2,1.2c-0.9-1-2-1.8-3.6-1.8
		c-2.4,0-4.2,2-4.2,4.6v0c0,2.6,1.9,4.6,4.3,4.6c1.5,0,2.7-0.7,3.6-1.8l1.1,1.1c-1.2,1.3-2.6,2.3-4.8,2.3
		C496.8,377.2,494.2,374.4,494.2,371.1"/>
	<rect x="508" y="360.3" class="st2" width="1.8" height="16.6"/>
	<rect x="513.6" y="365.1" class="st2" width="1.8" height="11.8"/>
	<path class="st2" d="M532.2,379l0.8-1.4c1.3,1,2.8,1.5,4.5,1.5c2.6,0,4.3-1.4,4.3-4.2v-1.4c-1,1.4-2.5,2.5-4.6,2.5
		c-2.8,0-5.5-2.1-5.5-5.5c0-3.4,2.7-5.6,5.5-5.6c6.4,0,6.4,5.6,6.4,5.6v4.4c0,1.8-0.5,3.2-1.5,4.2c-1.1,1.1-2.6,1.6-4.5,1.6
		C535.6,380.6,533.8,380,532.2,379 M541.9,370.5L541.9,370.5c0-2.5-2.1-4-4.3-4s-4.1,1.5-4.1,4v0c0,2.4,1.9,4,4.1,4
		C539.8,374.4,541.9,372.8,541.9,370.5"/>
	<rect x="513.6" y="362.2" class="st2" width="1.8" height="1.7"/>
</g>
</svg>
