<?xml version="1.0" encoding="utf-8"?>
<!-- Generator: Adobe Illustrator 19.0.0, SVG Export Plug-In . SVG Version: 6.00 Build 0)  -->
<svg version="1.1" id="layer" xmlns="http://www.w3.org/2000/svg" xmlns:xlink="http://www.w3.org/1999/xlink" x="0px" y="0px"
	 viewBox="-153 -46 652 652" style="enable-background:new -153 -46 652 652;" xml:space="preserve">
<style type="text/css">
	.st0{fill:#7A9E1A;}
	.st1{fill:#575756;}
	.st2{fill:#FFFFFF;}
	.st3{fill:#EBCC26;}
</style>
<rect x="-125.9" y="202.7" class="st0" width="113.5" height="113.5"/>
<path class="st1" d="M-121.1,336.5v25h-4.1v-25H-121.1z M-111.3,344.8l0,2.3c1.9-1.4,4.1-2.8,6.9-2.8c2.1,0,3.4,0.9,4.1,2
	c0.7,1.1,0.7,2.6,0.7,5v10.1h-3.7V352c0-2.6,0-4.6-2.6-4.6c-1.9,0-3.9,1.1-5.4,2.3v11.7h-3.7v-16.6H-111.3z M-83.6,344.8v2.3h-6.6v8
	c0,1.7,0,4.1,2.6,4.1c1.5,0,3-0.7,3.7-1l0.2,0.1l0.2,1.4c0,0.2,0.1,0.3-0.4,0.6c-1.5,0.8-3.5,1.7-5.5,1.7c-4.5,0-4.5-3.7-4.5-6.4
	l0-8.4H-96v-0.9l4.9-5h1l-0.1,3.6C-90.2,344.8-83.6,344.8-83.6,344.8z M-78.3,353.7c0.2,3.2,1.7,5.4,4.9,5.4c1.8,0,3.6-0.6,5.1-1.5
	l0.3,0l0.5,1.5c0.1,0.2-0.1,0.4-0.3,0.5c-1,0.7-3.7,2.3-7,2.3c-5.8,0-7.6-4.6-7.6-8.4c0-5.2,3.1-9.1,8.2-9.1c5.6,0,6.7,4.6,6.7,8.2
	L-78.3,353.7z M-71.4,350.8c0-0.8-0.2-4.2-3.1-4.2c-2,0-3.6,1.6-3.7,5L-71.4,350.8z M-59.9,344.8l-0.1,4.4c1.5-2.4,3-4.8,5.7-4.8
	c1.2,0,2.1,0.6,2.3,0.7c0.2,0.2,0.2,0.4,0.2,0.6c0,0.3,0,0.4-0.1,0.7l-0.9,2.1h-0.6c-0.4-0.3-0.7-0.6-1.7-0.6
	c-1.7,0-2.7,0.9-4.8,4.6v8.9h-3.7v-16.6H-59.9L-59.9,344.8z M-46.4,344.8l0,2.3c1.9-1.4,4.1-2.8,6.9-2.8c2.1,0,3.4,0.9,4.1,2
	c0.7,1.1,0.7,2.6,0.7,5v10.1h-3.7V352c0-2.6,0-4.6-2.6-4.6c-1.9,0-3.9,1.1-5.4,2.3v11.7h-3.7v-16.6H-46.4z M-29.3,346.9
	c0-0.4,0.1-0.5,0.4-0.7c2.9-1.8,6.2-1.8,6.9-1.8c5.9,0,5.8,3.5,5.8,5.9l-0.1,6.7c0,1.6,0,2.1,0.9,2.1c1,0,1.9-0.4,2.4-0.7l0.2,0.1
	v1.5c0,0.3-0.1,0.4-0.3,0.5c-0.5,0.3-2.6,1.3-4.3,1.3c-1.6,0-2-1.1-2.1-1.5c-1.4,0.5-4.2,1.5-6.5,1.5c-1.2,0-4.3-0.5-4.3-4.7
	c0-3,0.7-4.3,10.4-5.5c0-2.8,0-3.2-0.5-3.8c-0.7-0.9-2.2-0.9-2.8-0.9c-3,0-4.2,1.2-4.9,2.1l-1.1-0.3L-29.3,346.9z M-19.9,353.7
	c-0.8,0.1-2.8,0.4-5,0.9c-1.4,0.4-1.9,0.7-1.9,2.1c0,1,0.2,2.4,2.6,2.4c1.6,0,3.1-0.4,4.3-0.8L-19.9,353.7L-19.9,353.7z M0.4,344.8
	v2.3h-6.6v8c0,1.7,0,4.1,2.6,4.1c1.5,0,3-0.7,3.7-1l0.2,0.1l0.2,1.4c0,0.2,0.1,0.3-0.4,0.6c-1.5,0.8-3.5,1.7-5.5,1.7
	c-4.5,0-4.5-3.7-4.5-6.4l0-8.4H-12v-0.9l4.9-5h1l-0.1,3.6C-6.2,344.8,0.4,344.8,0.4,344.8z M2.5,336.8c0-1.3,1-2.2,2.2-2.2
	c1.2,0,2.2,1,2.2,2.2c0,1.4-1.3,2.2-2.2,2.2C3.8,339,2.5,338.3,2.5,336.8z M6.5,344.8v16.6H2.8v-16.6H6.5z M29.2,352.8
	c0,5.2-3.9,9.1-9.6,9.1c-5.6,0-8.9-3.9-8.9-8.6c0-5.5,4.3-9,9.6-9C26.9,344.4,29.2,349.2,29.2,352.8z M14.7,352.4
	c0,3.3,1.9,7.2,5.5,7.2c3,0,5-2.6,5-5.9c0-2.4-1.1-6.9-5.4-6.9C18,346.8,14.7,347.8,14.7,352.4z M37.1,344.8l0,2.3
	c1.9-1.4,4.1-2.8,6.9-2.8c2.1,0,3.4,0.9,4.1,2c0.7,1.1,0.7,2.6,0.7,5v10.1h-3.7V352c0-2.6,0-4.6-2.6-4.6c-1.9,0-3.9,1.1-5.4,2.3
	v11.7h-3.7v-16.6H37.1z M54.2,346.9c0-0.4,0.1-0.5,0.4-0.7c2.9-1.8,6.2-1.8,6.9-1.8c5.9,0,5.8,3.5,5.8,5.9l-0.1,6.7
	c0,1.6,0,2.1,0.9,2.1c1,0,1.9-0.4,2.4-0.7l0.2,0.1v1.5c0,0.3-0.1,0.4-0.3,0.5c-0.5,0.3-2.6,1.3-4.3,1.3c-1.6,0-2-1.1-2.1-1.5
	c-1.4,0.5-4.2,1.5-6.5,1.5c-1.2,0-4.3-0.5-4.3-4.7c0-3,0.7-4.3,10.4-5.5c0-2.8,0-3.2-0.5-3.8c-0.7-0.9-2.2-0.9-2.8-0.9
	c-3,0-4.2,1.2-4.9,2.1l-1.1-0.3L54.2,346.9z M63.6,353.7c-0.8,0.1-2.8,0.4-5,0.9c-1.4,0.4-1.9,0.7-1.9,2.1c0,1,0.2,2.4,2.6,2.4
	c1.6,0,3.1-0.4,4.3-0.8L63.6,353.7L63.6,353.7z M77,334.2v27.2h-3.7v-27.2H77z M106.3,339.5c0,0.2,0,0.3-0.1,0.4l-0.7,0.3
	c-0.1,0.1-0.2,0.1-0.2,0.1c-0.2,0-0.8-0.5-1-0.6c-1.1-0.6-2.9-1.3-4.8-1.3c-2.4,0-4.8,1.1-4.8,3.8c0,2.3,1.5,3,5.6,4.8
	c3.5,1.5,7.1,3.2,7.1,7.4c0,3.9-3.3,7.5-9.7,7.5c-2.5,0-5.8-0.7-6.5-0.9c-0.5-0.2-0.7-0.3-0.7-0.6l-0.4-2.4c0-0.3,0-0.4,0.2-0.5
	l0.6-0.3c0,0,0.2-0.1,0.2-0.1c0.1,0,0.7,0.4,0.8,0.5c1.9,1,4.2,1.7,6.5,1.7c2.6,0,5.2-1.3,5.2-4c0-2.6-2.1-3.5-5.2-4.8
	c-4-1.7-7.4-3.1-7.4-7.4c0-4.3,3.7-7.1,9.4-7.1c2.6,0,4.8,0.6,5.2,0.7c0.2,0,0.4,0.2,0.4,0.6L106.3,339.5z M128.7,352.8
	c0,5.2-3.9,9.1-9.6,9.1c-5.6,0-8.9-3.9-8.9-8.6c0-5.5,4.3-9,9.6-9C126.5,344.4,128.7,349.2,128.7,352.8z M114.2,352.4
	c0,3.3,1.9,7.2,5.5,7.2c3,0,5-2.6,5-5.9c0-2.4-1.1-6.9-5.4-6.9C117.6,346.8,114.2,347.8,114.2,352.4z M136.6,334.2v27.2h-3.7v-27.2
	H136.6z M141.7,336.8c0-1.3,1-2.2,2.2-2.2c1.2,0,2.2,1,2.2,2.2c0,1.4-1.3,2.2-2.2,2.2C143,339,141.7,338.3,141.7,336.8z
	 M145.7,344.8v16.6H142v-16.6H145.7z M167.2,334.2v27.2h-3.7l0-1.7c-1.1,0.6-3.3,2-6.2,2c-4.9,0-7.4-3.5-7.4-7.8c0-6,5-9.5,10.4-9.5
	c1.4,0,2.3,0.2,3.2,0.4v-10.6H167.2z M163.5,348.4c-0.6-0.3-1.8-1.1-4.2-1.1c-2,0-3.3,0.6-4.1,1.5c-1.3,1.3-1.5,3.3-1.5,4.3
	c0,3.9,2.4,6,5.4,6c0.7,0,2.3-0.1,4.4-1.3V348.4z M183.3,336.5l6.8,20l7.1-20h2.3l6.7,20l7.3-20h3.7l-10.4,25h-2.6l-6.3-18.6
	l-6.9,18.6h-2.7l-9.2-25H183.3z M218.2,346.9c0-0.4,0.1-0.5,0.4-0.7c2.9-1.8,6.2-1.8,6.9-1.8c5.9,0,5.8,3.5,5.8,5.9l-0.1,6.7
	c0,1.6,0,2.1,0.9,2.1c1,0,1.9-0.4,2.4-0.7l0.2,0.1v1.5c0,0.3-0.1,0.4-0.3,0.5c-0.5,0.3-2.6,1.3-4.3,1.3c-1.6,0-2-1.1-2.1-1.5
	c-1.4,0.5-4.2,1.5-6.5,1.5c-1.2,0-4.3-0.5-4.3-4.7c0-3,0.7-4.3,10.4-5.5c0-2.8,0-3.2-0.5-3.8c-0.7-0.9-2.2-0.9-2.8-0.9
	c-3,0-4.2,1.2-4.9,2.1l-1.1-0.3L218.2,346.9z M227.6,353.7c-0.8,0.1-2.8,0.4-5,0.9c-1.4,0.4-1.9,0.7-1.9,2.1c0,1,0.2,2.4,2.6,2.4
	c1.6,0,3.1-0.4,4.3-0.8L227.6,353.7L227.6,353.7z M247.1,348.1c-0.8-0.6-2.1-1.3-4.2-1.3c-2.7,0-3,1.5-3,2c0,1.3,1.1,1.8,3.9,2.7
	c2.6,0.9,5.4,1.8,5.4,5c0,3.4-3.2,5.4-7.4,5.4c-2.2,0-4.5-0.6-5-0.7c-0.2-0.1-0.2-0.2-0.3-0.4l-0.4-2.5l1-0.4
	c0.7,0.5,2.3,1.7,5.2,1.7c2.9,0,3.3-1.5,3.3-2.2c0-1.5-1.4-2-3.5-2.6c-2.9-1-5.6-1.9-5.6-5c0-2.4,2-5.1,7.1-5.1c1.6,0,3.4,0.3,4,0.5
	c0.2,0.1,0.2,0.2,0.3,0.4l0.3,2.3L247.1,348.1z M263.5,344.8v2.3h-6.6v8c0,1.7,0,4.1,2.6,4.1c1.5,0,3-0.7,3.7-1l0.2,0.1l0.2,1.4
	c0,0.2,0.1,0.3-0.4,0.6c-1.5,0.8-3.5,1.7-5.5,1.7c-4.5,0-4.5-3.7-4.5-6.4l0-8.4h-2.2v-0.9l4.9-5h1l-0.1,3.6
	C256.8,344.8,263.5,344.8,263.5,344.8z M268.8,353.7c0.2,3.2,1.7,5.4,4.9,5.4c1.8,0,3.6-0.6,5.1-1.5l0.3,0l0.5,1.5
	c0.1,0.2-0.1,0.4-0.3,0.5c-1,0.7-3.7,2.3-7,2.3c-5.8,0-7.6-4.6-7.6-8.4c0-5.2,3.1-9.1,8.1-9.1c5.6,0,6.7,4.6,6.7,8.2L268.8,353.7z
	 M275.6,350.8c0-0.8-0.2-4.2-3.1-4.2c-2,0-3.6,1.6-3.7,5L275.6,350.8z M305,336.5l9.9,25h-4.4l-2.9-7.8h-10.4l-3.2,7.8h-3.8l11.7-25
	H305z M306.7,351.3l-4-10.8l-4.5,10.8H306.7z M327.2,348.1c-0.8-0.6-2.1-1.3-4.2-1.3c-2.7,0-3,1.5-3,2c0,1.3,1.1,1.8,3.9,2.7
	c2.6,0.9,5.4,1.8,5.4,5c0,3.4-3.2,5.4-7.4,5.4c-2.2,0-4.5-0.6-5-0.7c-0.2-0.1-0.2-0.2-0.3-0.4l-0.4-2.5l1-0.4
	c0.7,0.5,2.3,1.7,5.2,1.7c2.9,0,3.3-1.5,3.3-2.2c0-1.5-1.4-2-3.5-2.6c-2.9-1-5.6-1.9-5.6-5c0-2.4,2-5.1,7.1-5.1c1.6,0,3.4,0.3,4,0.5
	c0.2,0.1,0.2,0.2,0.3,0.4l0.3,2.3L327.2,348.1z M342.7,348.1c-0.8-0.6-2.1-1.3-4.2-1.3c-2.7,0-3,1.5-3,2c0,1.3,1.1,1.8,3.9,2.7
	c2.6,0.9,5.4,1.8,5.4,5c0,3.4-3.2,5.4-7.4,5.4c-2.2,0-4.5-0.6-5-0.7c-0.2-0.1-0.2-0.2-0.3-0.4l-0.4-2.5l1-0.4
	c0.7,0.5,2.3,1.7,5.2,1.7c2.9,0,3.3-1.5,3.3-2.2c0-1.5-1.4-2-3.5-2.6c-2.9-1-5.6-1.9-5.6-5c0-2.4,2-5.1,7.1-5.1c1.6,0,3.4,0.3,4,0.5
	c0.2,0.1,0.2,0.2,0.3,0.4l0.3,2.3L342.7,348.1z M365.8,352.8c0,5.2-3.9,9.1-9.6,9.1c-5.6,0-8.9-3.9-8.9-8.6c0-5.5,4.3-9,9.7-9
	C363.5,344.4,365.8,349.2,365.8,352.8z M351.3,352.4c0,3.3,1.9,7.2,5.5,7.2c3,0,5-2.6,5-5.9c0-2.4-1.1-6.9-5.4-6.9
	C354.6,346.8,351.3,347.8,351.3,352.4z M381.5,348.4c-0.9-0.6-1.9-1.2-3.8-1.2c-4.5,0-5.1,3.5-5.1,5.6c0,3.8,2,6.3,5.3,6.3
	c1.8,0,3.6-0.6,5.2-1.6l0.3,0.2v1.5c0,0.3-0.1,0.4-0.4,0.6c-0.5,0.4-3.5,2.2-6.8,2.2c-4.3,0-7.5-3-7.5-7.8c0-5.9,4.8-9.7,10.3-9.7
	c1.5,0,3.3,0.4,4.4,1.3c0.2,0.2,0.2,0.4,0.2,0.8c0,0.5,0,0.6-0.2,0.8l-1.2,1.1L381.5,348.4L381.5,348.4z M386.5,336.8
	c0-1.3,1-2.2,2.2-2.2c1.2,0,2.2,1,2.2,2.2c0,1.4-1.3,2.2-2.2,2.2C387.8,339,386.5,338.3,386.5,336.8z M390.5,344.8v16.6h-3.7v-16.6
	H390.5z M395.9,346.9c0-0.4,0.1-0.5,0.4-0.7c2.9-1.8,6.2-1.8,6.9-1.8c5.9,0,5.8,3.5,5.8,5.9l-0.1,6.7c0,1.6,0,2.1,0.9,2.1
	c1,0,1.9-0.4,2.4-0.7l0.2,0.1v1.5c0,0.3-0.1,0.4-0.3,0.5c-0.5,0.3-2.6,1.3-4.3,1.3c-1.6,0-2-1.1-2.1-1.5c-1.4,0.5-4.2,1.5-6.5,1.5
	c-1.2,0-4.3-0.5-4.3-4.7c0-3,0.8-4.3,10.4-5.5c0-2.8,0-3.2-0.5-3.8c-0.7-0.9-2.2-0.9-2.8-0.9c-3,0-4.2,1.2-4.9,2.1l-1.1-0.3
	L395.9,346.9z M405.4,353.7c-0.8,0.1-2.8,0.4-5,0.9c-1.4,0.4-1.8,0.7-1.8,2.1c0,1,0.2,2.4,2.6,2.4c1.6,0,3.1-0.4,4.3-0.8
	L405.4,353.7L405.4,353.7z M425.7,344.8v2.3h-6.6v8c0,1.7,0,4.1,2.6,4.1c1.5,0,3-0.7,3.7-1l0.2,0.1l0.2,1.4c0,0.2,0.1,0.3-0.4,0.6
	c-1.5,0.8-3.5,1.7-5.5,1.7c-4.5,0-4.5-3.7-4.5-6.4l0-8.4h-2.2v-0.9l4.9-5h1l-0.1,3.6C419.1,344.8,425.7,344.8,425.7,344.8z
	 M427.8,336.8c0-1.3,1-2.2,2.2-2.2c1.2,0,2.2,1,2.2,2.2c0,1.4-1.3,2.2-2.2,2.2C429.1,339,427.8,338.3,427.8,336.8z M431.8,344.8
	v16.6h-3.7v-16.6H431.8z M454.5,352.8c0,5.2-3.9,9.1-9.6,9.1c-5.6,0-8.9-3.9-8.9-8.6c0-5.5,4.3-9,9.6-9
	C452.2,344.4,454.5,349.2,454.5,352.8z M440,352.4c0,3.3,1.8,7.2,5.5,7.2c3,0,5-2.6,5-5.9c0-2.4-1.1-6.9-5.4-6.9
	C443.3,346.8,440,347.8,440,352.4z M462.4,344.8l0,2.3c1.9-1.4,4.1-2.8,6.9-2.8c2.1,0,3.4,0.9,4.1,2c0.8,1.1,0.8,2.6,0.8,5v10.1
	h-3.7V352c0-2.6,0-4.6-2.6-4.6c-1.9,0-3.9,1.1-5.4,2.3v11.7h-3.7v-16.6H462.4z"/>
<path class="st1" d="M52.7,201.8v114.2H16.3l-0.2-114.2H52.7z M154.7,222.4c-4.4-2.2-5.6-2.5-6.5-2.8c-10.3-3.8-23-3.6-27.1-3.2
	c-2,0.2-15.1,1.9-14.1,12.1c0.6,6,4.9,7.6,23.7,14.8c15.5,5.9,41.9,12.6,42.6,38.1c0.2,7.2-3.1,28.1-36.5,34.5
	c-4.1,0.8-11.5,2.2-27.4,2.2c-10.2,0-21.3-1.4-32.2-3.4c-1.8-0.4-4.6-0.6-4.8-3.8v-13.3c-0.2-3.4,0.9-3.7,2.8-4.6l4.5-2.3
	c0.7-0.4,1.6-0.7,2.1-0.7c0.2,0,5.8,3.2,6.8,3.8c10,5.3,20.7,7.2,27.5,7.7c12.9,0.9,22.6-1.6,24.1-12.5
	c1.6-11.3-16.2-14.6-39.6-23.8C75,255,74.2,242.6,74.2,234.8c0-16,10.3-23.3,13.5-25.7c9.1-6.1,19.5-9.2,37.7-9.2
	c13.9,0,28.9,1.1,35.5,2.5c3.2,0.6,4.5,4.4,6.2,8.9c0,0,2.5,6.1,2.5,7.4c0,1.3-2.2,2.7-4.3,3.9c-3,1.7-5.2,2.3-5.7,2L154.7,222.4
	L154.7,222.4z M208.4,201.7l24.4,76.6l25.9-76.6H278l23.8,76.4l26-76.4h25l-47,114.2h-22.1l-21.4-66.3l-25,66.3H215l-39.9-114.2
	H208.4z M413.5,271.1L393.1,225l-16.5,46.2H413.5L413.5,271.1z M419.6,201.9L472.8,316H432l-12.2-28.7h-49.4l-10.6,28.8h-27
	l47.3-114.2L419.6,201.9L419.6,201.9z"/>
<path class="st2" d="M-42.5,269.6C-42.5,269.6-42.5,269.6-42.5,269.6C-42.5,269.6-42.5,269.6-42.5,269.6L-42.5,269.6
	c0.3,2.1,4.8,28.4,5.3,35.5c0.2,2.9,1.9,7.5,3.9,11.3h15.8c-0.9-5.1-2.3-9.7-4-12.8c-1.3-2.4-18.2-29.5-20.8-33.6
	c2.8,3.7,19.8,26.2,23.9,32.8c1.3,2,3.9,4.5,6.4,6.9V292C-22.1,284.4-40.6,271.1-42.5,269.6C-42.5,269.6-42.5,269.6-42.5,269.6z
	 M-12,270v-7.4c-12.7,2.6-26.1,6-29.5,6.7c3.3-1,16.8-5.3,29.5-8.6v-11.3c-8.8,5.6-28.2,18.8-30.2,20.1C-40,269.5-25.5,269.7-12,270
	z M-92.7,265.9c3.7,0.4,46.7,3.3,49.9,3.5c0,0,0,0-0.1,0c-2.6,0-39.6-0.5-49.7-1.2c-9.3-0.6-27.8,3.2-27.3,4.8
	c0.5,1.6,0.4,0.8,1.4,3.2c1.1,2.6,0.6,3.2,1.7,3.9c1.3,0.8,20.8,1.1,28.7-0.4c3.3-0.6,39.3-8.9,44.7-10.1
	c-4.8,1.4-34.6,10.3-43.3,12.3c-8.5,2-22.4,10.7-21.2,12.2c1.3,1.5,0.8,0.7,2.9,2.7c2.3,2.2,2.2,2.9,3.6,3.4
	c1.6,0.5,18.7-4.6,24.7-8.3c2.6-1.6,31.9-21.2,33.8-22.5c0,0,0,0,0.1,0c-0.8,0.6-24.5,19.6-31.4,24.3c-6.3,4.2-13.7,16.7-11.8,17.7
	c1.9,1.1,1,0.5,4,1.9c3.2,1.5,3.5,2.3,5,2.3c1.6,0.1,13.7-9.6,17-14.8c1.5-2.3,16.9-31.2,17.2-31.2c0,0,0,0,0,0
	c-0.2,0-10.6,25.9-14.1,32.4c-1.8,3.4-2.5,9.3-2.3,14.4h15.7c1.4-3.8,2.7-8.6,2.7-11.5c0-2.6-2-33.8-2.1-35.3c0,0,0-0.1,0-0.1
	s0,0,0,0c0,0,0,0,0,0s0,0,0,0c0,0,0,0,0,0c0,0,0-0.1,0-0.1c0.1,0,0.1,0,0.1,0c0,0,0,0,0,0c0,0,0,0,0,0c0,0,0,0,0,0c0,0,0,0,0,0
	c0,0,0.1,0,0.1,0c0,0,0,0,0,0c0,0,0,0,0,0c0,0,0,0,0.1,0c0,0,0,0,0,0c0,0,0,0,0,0c0,0,0,0,0,0c0,0,0,0,0,0c0,0-0.1,0-0.1,0h0l0.2,0
	c0,0,0-0.1,0-0.1c0,0,0,0,0,0c0,0,0,0,0-0.1c0,0,0,0,0,0c0,0,0,0,0,0c0,0,0,0,0,0c0,0,0,0,0,0h0c0,0,0,0,0,0c0,0,0,0,0,0
	c0,0,0,0,0,0c0,0,0,0,0,0c0,0,0,0,0,0c0,0,0,0,0,0c0,0,0,0,0,0c0,0,0,0,0,0c0,0,0,0,0,0c0.8-2.7,10.6-26,14-32.3
	c3.1-5.9,2.8-20.1,0.6-20.6c-2.3-0.5-1.2-0.2-4.5-0.8c-3.7-0.6-4.3-1.3-5.6-0.9c-1.4,0.4-6.6,13.2-6.7,19.2c0,2.6,2,34.1,2.1,35.3
	c0,0,0,0,0,0c-0.3-1.9-4.9-28.3-5.4-35.5c-0.5-6.6-8.5-20.4-10.7-20.3c-2.3,0.1-1.1,0.2-4.3,0.5c-3.5,0.4-4.4,0-5.3,0.6
	c-1,0.8,1.4,14.7,4.6,20.6c1.3,2.4,18.2,29.4,20.8,33.5c-2.8-3.7-19.6-26.3-23.7-32.8c-4-6.3-18.5-17.6-20.3-16.9
	c-1.9,0.7-0.9,0.5-3.5,1.7c-2.8,1.4-3.9,1.2-4.3,2.1c-0.5,1,9.3,14,15.3,18.9c2.6,2.1,34.6,25.9,36.8,27.4c0,0,0,0,0,0.1
	c-1-0.7-31.4-20.3-39-26c-6.9-5.1-25.6-12.2-26.9-11c-1.3,1.2-0.5,0.7-2.1,2.6c-1.7,2.1-2.7,2.2-2.6,3.2
	c0.2,1.1,15.7,11.2,23.6,14.3c3.5,1.4,46.2,16.5,47,16.8c0,0,0,0,0,0c-0.8-0.2-38.3-11.3-48.1-14.7c-8.8-3.1-28.9-4.9-29.3-3.4
	c-0.4,1.6-0.1,0.8-0.4,3.1c-0.4,2.5-1.2,2.9-0.5,3.9C-120.2,259.4-101.2,265-92.7,265.9z M-25.2,238.2c-1.4,2.2-15.7,28.2-17,31.2
	c1.4-1.1,21.3-17.7,30.2-23.4v-20.3C-17.1,228.9-22.9,234.6-25.2,238.2z M-42.4,269.6C-42.4,269.6-42.4,269.6-42.4,269.6
	C-42.4,269.6-42.4,269.6-42.4,269.6C-42.4,269.6-42.4,269.6-42.4,269.6z M-42.4,269.5L-42.4,269.5L-42.4,269.5L-42.4,269.5
	L-42.4,269.5L-42.4,269.5C-42.4,269.5-42.3,269.5-42.4,269.5c0.1,0,0.1,0,0.1,0c0,0,0,0,0,0C-42.3,269.4-42.3,269.4-42.4,269.5
	L-42.4,269.5z M-42.4,269.6L-42.4,269.6L-42.4,269.6C-42.4,269.6-42.4,269.6-42.4,269.6C-42.4,269.6-42.4,269.6-42.4,269.6
	L-42.4,269.6L-42.4,269.6c1.8,1.3,19,12.1,30.4,19.8v-9.2c-12.5-4.4-27.7-9.7-30.3-10.6h0.1c2.4,0,17.5,4.9,30.2,8.9v-6.9
	C-25.8,270.7-39.9,269.7-42.4,269.6C-42.3,269.5-42.3,269.5-42.4,269.6C-42.3,269.5-42.4,269.6-42.4,269.6z"/>
<path class="st3" d="M-19.7,274c-1.7,8.7-13.2,13.7-25.8,11.3c-12.6-2.4-21.4-11.5-19.7-20.1c1.7-8.7,13.2-13.7,25.8-11.3
	C-26.9,256.3-18,265.3-19.7,274L-19.7,274z"/>
</svg>
