<?xml version="1.0" encoding="utf-8"?>
<!-- Generator: Adobe Illustrator 19.2.1, SVG Export Plug-In . SVG Version: 6.00 Build 0)  -->
<svg version="1.1" id="layer" xmlns="http://www.w3.org/2000/svg" xmlns:xlink="http://www.w3.org/1999/xlink" x="0px" y="0px"
	 viewBox="0 0 652 652" style="enable-background:new 0 0 652 652;" xml:space="preserve">
<style type="text/css">
	.st0{fill:#646363;}
	.st1{fill:#0093D3;}
	.st2{fill:#FFFFFF;}
</style>
<g>
	<path class="st0" d="M463,368.9h15.8c6.7,0,10.3-3,10.3-10.2c0-7.5-3.6-10.1-10.5-10.1H463V368.9z M471.1,353.7h4.6
		c3.7,0,5.1,1.8,5.1,5c0,3.2-1.5,5-5.1,5h-4.6V353.7z M430.5,368.9h20.4v-5.5h-12.4v-14.8h-8V368.9z M401.2,353.7h5.6
		c1.3,0,2.3,0.4,2.3,1.9c0,1.3-0.7,1.9-2.2,1.9h-5.7V353.7z M393.2,368.9h8v-6.3h5.7c1.5,0,2,0.9,2.1,2.4c0.1,2.4,0.1,3.2,0.4,3.8
		h8.7c-0.5-0.6-0.9-1.5-1-2.4l-0.3-4.4c-0.1-1.8-1.1-2.8-2.3-3.1v-0.1c2.3-0.7,3.1-2.7,3.1-4.6c0-2.2-1.2-4.2-2.8-4.9
		c-1.1-0.5-2.5-0.7-4.8-0.7h-16.9V368.9z M361.2,358.7c0-4.1,2.1-5.7,5.3-5.7s5.3,1.6,5.3,5.7c0,4.1-2.1,5.7-5.3,5.7
		S361.2,362.9,361.2,358.7 M352.7,358.7c0,10.5,9,10.9,13.9,10.9c4.9,0,13.9-0.3,13.9-10.9c0-10.5-9-10.9-13.9-10.9
		C361.7,347.9,352.7,348.2,352.7,358.7 M314.6,368.9h7.9l2.8-11.3h0.1l2.8,11.3h7.9l5.9-20.3h-7.8l-2.6,12.4h-0.1l-2.9-12.4h-6.4
		l-3,12.4H319l-2.6-12.4h-7.8L314.6,368.9z M208.4,368.9H230v-4.9h-13.6v-2.7H229v-4.9h-12.6v-2.7H230v-4.9h-21.6V368.9z
		 M181.2,368.9h8v-15.2h7.4v-5.1h-22.9v5.1h7.4V368.9z M152.2,361.6c1.1,0.2,1.5,0.8,1.5,1.4c0,1-0.7,1.6-3.2,1.6
		c-1.3,0-2.1-0.1-2.7-0.4c-0.6-0.3-0.8-0.8-0.9-1.4h-9.7c0,6,6.8,6.8,12.9,6.8c9,0,13-2.3,13-7.3c0-3.4-2.5-5.3-6.5-5.9l-9.6-1.4
		c-0.8-0.1-1.1-0.5-1.1-1c0-0.9,0.8-1.5,3.2-1.5c0.9,0,1.8,0.1,2.5,0.4c0.7,0.3,1.2,0.8,1.2,1.6h9.3c-0.3-4.3-4-6.7-13-6.7
		c-6.6,0-11.7,1.4-11.7,6.7c0,2.8,1.6,5.1,5.5,5.7L152.2,361.6z M100.4,368.9h8.5l0.9-2.3h8.4l0.9,2.3h8.5l-8.6-20.3h-9.8
		L100.4,368.9z M116.4,361.6h-4.8l2.4-6.9h0.1L116.4,361.6z M65.2,368.9h7.9l2.8-11.3h0.1l2.8,11.3h7.9l5.9-20.3h-7.8L82.1,361h-0.1
		l-3-12.4h-6.4l-3,12.4h-0.1l-2.6-12.4h-7.8L65.2,368.9z M40.1,368.9h9.5l-5.7-5.1c1.4-1.1,2.4-1.9,4-3.9l-3.4-3
		c-1.1,1.2-2.2,2.4-4.1,3.9l-3.4-3.2c3.1-0.7,4.7-2.1,4.7-4.4c0-3.5-4-4.9-8.3-4.9c-6.4,0-8.6,2.4-8.6,5.1c0,1.2,0.5,2.3,2,3.5
		c-3.9,0.8-5.9,2.8-5.9,5.9c0,4.3,4,6.8,9.2,6.8c3.5,0,6.9-1,8.5-2.2L40.1,368.9z M35.1,364.2c-0.5,0.4-2,0.8-3.2,0.8
		c-1.9,0-3.4-1.3-3.4-2.9c0-1.1,0.5-1.9,1.6-2.4L35.1,364.2z M31.9,353.2c0-0.8,0.6-1.3,1.8-1.3c1.1,0,1.9,0.5,1.9,1.2
		c0,1-0.8,1.5-2.1,1.9C32.5,354.4,31.9,353.8,31.9,353.2"/>
	<path class="st1" d="M593.5,272.4h-0.3c-3.1-8-8.4-11.9-17.4-11.9c-23.2,0-24.8,22.4-24.8,40.4c0,18.6,3.8,38.7,22.7,38.7
		c7.8,0,14.6-2.4,18.2-10.2h0.3v15.8c0,5.4-2.1,7.4-6.9,7.4c-2.1,0-3.5-0.4-4.7-1.8c-0.7-0.9-1.3-2.4-1.3-4.4h-26
		c0.7,9.4,2.5,23,32.5,23c21,0,35.1-7.2,35.1-30.4v-76.5h-27.3V272.4z M592.6,302.3c0,11-0.9,16.9-6.6,16.9c-5.5,0-6.3-5.9-6.3-16.9
		c0-14.9,0.9-20.6,6.5-20.6C591.8,281.7,592.6,287.4,592.6,302.3 M513.8,342.2h28.6v-61.6c0-14.6-9.3-20.2-19.5-20.2
		c-9.6,0-16.8,3.4-21.1,11.2h-0.3v-9.1h-27.8v79.7h28.6v-52.7c0-4.6,1.9-7.8,5.8-7.8c3.7,0,5.6,1.8,5.6,7.8V342.2z M434.7,256.2
		h28.6v-20.3h-28.6V256.2z M434.7,342.2h28.6v-79.7h-28.6V342.2z M394.8,342.2h28.6V237h-28.6V342.2z M360.7,294h26.4
		c0-23.9-6.8-33.6-32.9-33.6c-31.6,0-35,19.4-35,41.8c0,22.5,3.4,42,35,42c12.4,0,20.7-2.8,25.8-8.7c5.2-5.8,7.1-14.7,7.1-27.6h-26
		c0,13.8-1.3,17.7-6.9,17.7c-5.9,0-6.3-3.8-6.3-23.4c0-19.9,1.2-23.3,6.5-23.3c4.9,0,6.3,3.4,6.3,11.3V294z M267.9,342.2
		c0,1.5-0.4,2.9-1.5,4.3c-1,1.5-2.8,2.2-5.2,2.2c-2.5,0-5-0.1-7.5-0.4v18.6c3.5,0.7,7.4,1.3,13.6,1.3c21.6,0,25.1-7.7,30.1-26.7
		l20.5-79h-28.6l-6.5,48.3h-0.3l-7.2-48.3h-29.5L267.9,342.2z M217.2,294h26.4c0-23.9-6.8-33.6-32.9-33.6c-31.6,0-35,19.4-35,41.8
		c0,22.5,3.4,42,35,42c12.4,0,20.7-2.8,25.8-8.7c5.2-5.8,7.1-14.7,7.1-27.6h-26c0,13.8-1.3,17.7-6.9,17.7c-5.9,0-6.3-3.8-6.3-23.4
		c0-19.9,1.2-23.3,6.5-23.3c4.9,0,6.3,3.4,6.3,11.3V294z M142.8,292h-12.4v-4.7c0-7.8,1.9-10,6.1-10c4.6,0,6.3,2.2,6.3,10V292z
		 M130.4,307h39.3v-1.3c0-24.9-0.3-45.2-32.9-45.2c-31.6,0-35,19.4-35,41.8c0,22.5,3.4,42,35,42c9.7,0,17.9-2.2,23.5-6.9
		c5.6-4.7,8.6-12.2,8.6-23.1h-26c0,8.1-0.6,13.3-6.2,13.3c-5.9,0-6.2-5.8-6.2-10V307z M20.9,342.2h29.5v-41.4h5.5
		c5.2,0,8.1,1.6,8.1,10.6c0,5.2,0.4,10.5,0.4,15.6c0,5.2,0.3,12.8,2.2,15.2H98v-1.5c-1.3-0.6-2.4-1.6-3.1-3.1
		c-0.7-1.5-1.3-6.5-1.3-12.4v-8.7c0-6.2-0.1-13.3-2.8-18c-2.8-5-8.1-8-14-8.4v-0.3c10.3-1.5,17.6-8.5,17.6-25.3
		c0-17.5-8.7-27.6-29.1-27.6H20.9V342.2z M50.4,258.2h3.4c6.6,0,10.9,2.1,10.9,10.8c0,10.2-5.2,12.4-10,12.4h-4.3V258.2z"/>
</g>
<rect x="20.8" y="381.3" class="st1" width="599.5" height="26.3"/>
<path class="st2" d="M31.8,389L31.8,389l0.8,5.4H31L31.8,389z M29.6,386.2l-3.1,13.1h3.8l0.4-2h2.5l0.4,2h3.8l-3.1-13.1H29.6z"/>
<g>
	<path class="st2" d="M49,392.8c0-1-0.2-1.4-0.8-1.4c-0.7,0-0.8,0.4-0.8,2.9c0,2.4,0.1,2.9,0.8,2.9c0.7,0,0.9-0.5,0.9-2.2h3.2
		c0,1.6-0.2,2.7-0.9,3.4c-0.6,0.7-1.7,1.1-3.2,1.1c-3.9,0-4.3-2.4-4.3-5.2c0-2.8,0.4-5.2,4.3-5.2c3.2,0,4.1,1.2,4.1,4.2H49V392.8z"
		/>
	<path class="st2" d="M61.6,397.8c0,0.5,0.1,1,0.3,1.5h-3.3c-0.1-0.3-0.2-0.7-0.2-1l0,0c-0.4,1-1.3,1.3-2.3,1.3
		c-1.9,0-2.7-1-2.7-2.9c0-2.2,1-2.8,2.4-3.1l1.6-0.4c0.7-0.2,1-0.4,1-1c0-0.5-0.3-0.8-0.7-0.8c-0.8,0-0.9,0.6-0.9,1.1h-3.1
		c0-2.2,1.2-3.3,4-3.3c3.2,0,3.9,1.3,3.9,2.9V397.8z M58.3,394.5c-0.2,0.1-0.5,0.2-0.9,0.4c-0.6,0.2-0.7,0.7-0.7,1.3
		c0,0.6,0.2,1,0.7,1c0.7,0,0.8-0.6,0.8-1.2V394.5z"/>
	<path class="st2" d="M63.9,386.4h3.6v2.9h1.2v2.3h-1.2v4.4c0,0.6,0.1,0.9,0.7,0.9c0.3,0,0.4,0,0.6-0.1v2.4c-0.3,0-1.2,0.1-1.8,0.1
		c-2,0-3-0.1-3-2.3v-5.4h-1.1v-2.3h1.1V386.4z"/>
	<path class="st2" d="M77.8,397.8c0,0.5,0.1,1,0.3,1.5h-3.3c-0.1-0.3-0.2-0.7-0.2-1l0,0c-0.4,1-1.3,1.3-2.3,1.3
		c-1.9,0-2.7-1-2.7-2.9c0-2.2,1-2.8,2.4-3.1l1.6-0.4c0.7-0.2,1-0.4,1-1c0-0.5-0.3-0.8-0.7-0.8c-0.8,0-0.9,0.6-0.9,1.1h-3.1
		c0-2.2,1.2-3.3,4-3.3c3.2,0,3.9,1.3,3.9,2.9V397.8z M74.5,394.5c-0.2,0.1-0.5,0.2-0.9,0.4c-0.6,0.2-0.7,0.7-0.7,1.3
		c0,0.6,0.2,1,0.7,1c0.7,0,0.8-0.6,0.8-1.2V394.5z"/>
	<rect x="79.7" y="386.2" class="st2" width="3.6" height="13.1"/>
	<path class="st2" d="M84.4,389.4h3.7l0.9,6h0l0.8-6h3.6l-2.5,9.8c-0.6,2.4-1.1,3.3-3.7,3.3c-0.8,0-1.2-0.1-1.7-0.2V400
		c0.3,0,0.6,0.1,0.9,0.1c0.3,0,0.5-0.1,0.6-0.3c0.1-0.2,0.2-0.3,0.2-0.5L84.4,389.4z"/>
	<path class="st2" d="M97.2,396.1c0,0.4,0.1,0.7,0.2,1c0.1,0.2,0.3,0.4,0.8,0.4c0.6,0,0.7-0.6,0.7-0.8c0-0.5-0.1-0.6-1.4-1.1
		c-2.3-0.8-3.3-1.3-3.3-3.2c0-2,1.1-3.3,3.9-3.3c4,0,4,2.2,4,3.1h-3c0-0.3,0-0.6-0.1-0.7c-0.1-0.2-0.3-0.3-0.7-0.3
		c-0.4,0-0.8,0.1-0.8,0.7c0,0.5,0.5,0.7,2.6,1.4c1,0.3,2.2,0.8,2.2,2.9c0,2.5-1.9,3.3-4.1,3.3c-2.6,0-4-0.7-4.1-3.4H97.2z"/>
	<path class="st2" d="M104.1,386.4h3.6v2.9h1.2v2.3h-1.2v4.4c0,0.6,0.1,0.9,0.7,0.9c0.3,0,0.4,0,0.6-0.1v2.4c-0.3,0-1.2,0.1-1.8,0.1
		c-2,0-3-0.1-3-2.3v-5.4H103v-2.3h1.1V386.4z"/>
	<path class="st2" d="M116.3,388.2c0-1.8,1-2.3,3-2.3c0.5,0,1.5,0,1.8,0.1v2.3h-0.5c-0.8,0-0.8,0.3-0.8,0.7v0.4h1.2v2.3h-1.2v7.6
		h-3.6v-7.6h-1.1v-2.3h1.1V388.2z"/>
	<path class="st2" d="M130.7,394.3c0,2.8-0.4,5.2-4.3,5.2c-3.9,0-4.3-2.4-4.3-5.2c0-2.8,0.4-5.2,4.3-5.2
		C130.2,389.1,130.7,391.5,130.7,394.3 M126.3,397.2c0.6,0,0.8-0.6,0.8-2.9c0-2.3-0.1-2.9-0.8-2.9c-0.6,0-0.8,0.6-0.8,2.9
		C125.5,396.6,125.7,397.2,126.3,397.2"/>
	<path class="st2" d="M132,389.4h3.4v1.5h0c0.3-1,1.1-1.7,2.1-1.7c0.4,0,0.5,0,0.6,0.1v3.2c-0.1,0-0.3,0-0.4-0.1c-0.2,0-0.3,0-0.7,0
		c-1.2,0-1.5,0.6-1.5,1.8v5.1H132V389.4z"/>
	<path class="st2" d="M145.3,389.4h3.5v1.1h0c0.1-0.5,0.5-1.4,2-1.4c3.1,0,3.1,3,3.1,5.4c0,2.8-0.4,5.1-2.9,5.1
		c-0.9,0-1.9-0.5-2.2-1.4h0v4.4h-3.6V389.4z M149.6,391.7c-0.7,0-0.8,0.7-0.8,2.6c0,1.9,0.1,2.6,0.8,2.6c0.7,0,0.8-0.7,0.8-2.6
		C150.4,392.5,150.3,391.7,149.6,391.7"/>
	<path class="st2" d="M163.9,394.3c0,2.8-0.4,5.2-4.3,5.2c-3.9,0-4.3-2.4-4.3-5.2c0-2.8,0.4-5.2,4.3-5.2
		C163.5,389.1,163.9,391.5,163.9,394.3 M159.5,397.2c0.6,0,0.8-0.6,0.8-2.9c0-2.3-0.1-2.9-0.8-2.9c-0.6,0-0.8,0.6-0.8,2.9
		C158.7,396.6,158.9,397.2,159.5,397.2"/>
	<path class="st2" d="M168.1,396.1c0,0.4,0.1,0.7,0.2,1c0.1,0.2,0.3,0.4,0.8,0.4c0.6,0,0.7-0.6,0.7-0.8c0-0.5-0.1-0.6-1.4-1.1
		c-2.3-0.8-3.3-1.3-3.3-3.2c0-2,1.1-3.3,3.9-3.3c4,0,4,2.2,4,3.1h-3c0-0.3,0-0.6-0.1-0.7c-0.1-0.2-0.3-0.3-0.7-0.3
		c-0.4,0-0.8,0.1-0.8,0.7c0,0.5,0.5,0.7,2.6,1.4c1,0.3,2.2,0.8,2.2,2.9c0,2.5-1.9,3.3-4.1,3.3c-2.6,0-4-0.7-4.1-3.4H168.1z"/>
	<path class="st2" d="M174.5,386h3.6v2.5h-3.6V386z M174.5,389.4h3.6v9.9h-3.6V389.4z"/>
	<path class="st2" d="M180.3,386.4h3.6v2.9h1.2v2.3h-1.2v4.4c0,0.6,0.1,0.9,0.7,0.9c0.3,0,0.4,0,0.6-0.1v2.4c-0.3,0-1.2,0.1-1.8,0.1
		c-2,0-3-0.1-3-2.3v-5.4h-1.1v-2.3h1.1V386.4z"/>
	<path class="st2" d="M186.2,386h3.6v2.5h-3.6V386z M186.2,389.4h3.6v9.9h-3.6V389.4z"/>
	<polygon class="st2" points="190.9,389.4 194.6,389.4 195.4,396.2 195.5,396.2 196.3,389.4 199.9,389.4 197.5,399.3 193.3,399.3 	
		"/>
	<path class="st2" d="M204,396.2c0,0.5,0,1.2,0.8,1.2c0.7,0,0.8-0.6,0.8-1.6h3.2c0,1.4-0.4,2.3-1.1,2.9c-0.7,0.6-1.7,0.9-2.9,0.9
		c-3.9,0-4.3-2.4-4.3-5.2c0-2.8,0.4-5.2,4.3-5.2c4.1,0,4.1,2.5,4.1,5.6v0.2H204V396.2z M205.6,392.4c0-1-0.2-1.2-0.8-1.2
		c-0.5,0-0.8,0.3-0.8,1.2v0.6h1.5V392.4z"/>
	<path class="st2" d="M221,392.8c0-1-0.2-1.4-0.8-1.4c-0.7,0-0.8,0.4-0.8,2.9c0,2.4,0.1,2.9,0.8,2.9c0.7,0,0.9-0.5,0.9-2.2h3.2
		c0,1.6-0.2,2.7-0.9,3.4c-0.6,0.7-1.7,1.1-3.2,1.1c-3.9,0-4.3-2.4-4.3-5.2c0-2.8,0.4-5.2,4.3-5.2c3.2,0,4.1,1.2,4.1,4.2H221V392.8z"
		/>
	<path class="st2" d="M230.5,392.7c0-0.8-0.2-1-0.7-1c-0.5,0-0.7,0.4-0.7,1v6.6h-3.6v-13.1h3.6v4.3h0c0.5-1,1.4-1.4,2.5-1.4
		c1.3,0,2.4,0.7,2.4,2.5v7.7h-3.6V392.7z"/>
	<path class="st2" d="M243.7,397.8c0,0.5,0.1,1,0.3,1.5h-3.3c-0.1-0.3-0.2-0.7-0.2-1l0,0c-0.4,1-1.3,1.3-2.3,1.3
		c-1.9,0-2.7-1-2.7-2.9c0-2.2,1-2.8,2.4-3.1l1.6-0.4c0.7-0.2,1-0.4,1-1c0-0.5-0.3-0.8-0.7-0.8c-0.8,0-0.9,0.6-0.9,1.1h-3.1
		c0-2.2,1.2-3.3,4-3.3c3.2,0,3.9,1.3,3.9,2.9V397.8z M240.5,394.5c-0.2,0.1-0.5,0.2-0.9,0.4c-0.6,0.2-0.7,0.7-0.7,1.3
		c0,0.6,0.2,1,0.7,1c0.7,0,0.8-0.6,0.8-1.2V394.5z"/>
	<path class="st2" d="M250.5,392.7c0-0.8-0.2-1-0.7-1c-0.5,0-0.7,0.4-0.7,1v6.6h-3.6v-9.9h3.4v1.1h0c0.5-1,1.4-1.4,2.6-1.4
		c1.3,0,2.4,0.7,2.4,2.5v7.7h-3.6V392.7z"/>
	<path class="st2" d="M260.8,389.4h3.4v9.5c0,2.9-1.8,3.8-4.4,3.8c-3.7,0-3.9-1.7-4-2.9h3.2c0,0.2,0.1,0.4,0.2,0.5
		c0.1,0.2,0.3,0.2,0.6,0.2c0.6,0,0.9-0.2,0.9-0.9v-2h0c-0.4,1-1.3,1.3-2.3,1.3c-2.3,0-2.8-2.5-2.8-4.8c0-2.2,0.2-5,3.1-5
		c1.1,0,1.8,0.5,2.2,1.5h0V389.4z M259.9,391.7c-0.7,0-0.8,0.7-0.8,2.6c0,1.4,0.1,2.1,0.8,2.1c0.7,0,0.8-0.7,0.8-2.1
		C260.7,392.5,260.6,391.7,259.9,391.7"/>
	<path class="st2" d="M269.1,396.2c0,0.5,0,1.2,0.8,1.2c0.7,0,0.8-0.6,0.8-1.6h3.2c0,1.4-0.4,2.3-1.1,2.9c-0.7,0.6-1.7,0.9-2.9,0.9
		c-3.9,0-4.3-2.4-4.3-5.2c0-2.8,0.4-5.2,4.3-5.2c4.1,0,4.1,2.5,4.1,5.6v0.2h-4.9V396.2z M270.7,392.4c0-1-0.2-1.2-0.8-1.2
		c-0.5,0-0.8,0.3-0.8,1.2v0.6h1.5V392.4z"/>
	<path class="st2" d="M281.2,386h3.6v2.5h-3.6V386z M281.2,389.4h3.6v9.9h-3.6V389.4z"/>
	<path class="st2" d="M291.5,392.7c0-0.8-0.2-1-0.7-1c-0.5,0-0.7,0.4-0.7,1v6.6h-3.6v-9.9h3.4v1.1h0c0.5-1,1.4-1.4,2.6-1.4
		c1.3,0,2.4,0.7,2.4,2.5v7.7h-3.6V392.7z"/>
	<path class="st2" d="M303.1,386.4h3.6v2.9h1.2v2.3h-1.2v4.4c0,0.6,0.1,0.9,0.7,0.9c0.3,0,0.4,0,0.6-0.1v2.4c-0.3,0-1.2,0.1-1.8,0.1
		c-2,0-3-0.1-3-2.3v-5.4H302v-2.3h1.1V386.4z"/>
	<path class="st2" d="M313.9,392.7c0-0.8-0.2-1-0.7-1c-0.5,0-0.7,0.4-0.7,1v6.6H309v-13.1h3.6v4.3h0c0.5-1,1.4-1.4,2.5-1.4
		c1.3,0,2.4,0.7,2.4,2.5v7.7h-3.6V392.7z"/>
	<path class="st2" d="M322.4,396.2c0,0.5,0,1.2,0.8,1.2c0.7,0,0.8-0.6,0.8-1.6h3.2c0,1.4-0.4,2.3-1.1,2.9c-0.7,0.6-1.7,0.9-2.9,0.9
		c-3.9,0-4.3-2.4-4.3-5.2c0-2.8,0.4-5.2,4.3-5.2c4.1,0,4.1,2.5,4.1,5.6v0.2h-4.9V396.2z M324,392.4c0-1-0.2-1.2-0.8-1.2
		c-0.5,0-0.7,0.3-0.7,1.2v0.6h1.5V392.4z"/>
	<path class="st2" d="M334.4,389.4h3.4v1.5h0c0.3-1,1.1-1.7,2.1-1.7c0.4,0,0.5,0,0.6,0.1v3.2c-0.1,0-0.3,0-0.4-0.1
		c-0.2,0-0.3,0-0.7,0c-1.2,0-1.5,0.6-1.5,1.8v5.1h-3.6V389.4z"/>
	<path class="st2" d="M345.2,396.2c0,0.5,0,1.2,0.8,1.2c0.7,0,0.8-0.6,0.8-1.6h3.2c0,1.4-0.4,2.3-1.1,2.9c-0.7,0.6-1.7,0.9-2.9,0.9
		c-3.9,0-4.3-2.4-4.3-5.2c0-2.8,0.4-5.2,4.3-5.2c4.1,0,4.1,2.5,4.1,5.6v0.2h-4.9V396.2z M346.7,392.4c0-1-0.2-1.2-0.8-1.2
		c-0.5,0-0.8,0.3-0.8,1.2v0.6h1.5V392.4z"/>
	<path class="st2" d="M354.1,396.1c0,0.4,0.1,0.7,0.2,1c0.1,0.2,0.3,0.4,0.8,0.4c0.6,0,0.7-0.6,0.7-0.8c0-0.5-0.1-0.6-1.4-1.1
		c-2.3-0.8-3.3-1.3-3.3-3.2c0-2,1.1-3.3,3.9-3.3c4,0,4,2.2,4,3.1h-3c0-0.3,0-0.6-0.1-0.7c-0.1-0.2-0.3-0.3-0.7-0.3
		c-0.4,0-0.8,0.1-0.8,0.7c0,0.5,0.5,0.7,2.6,1.4c1,0.3,2.2,0.8,2.2,2.9c0,2.5-1.9,3.3-4.1,3.3c-2.6,0-4-0.7-4.1-3.4H354.1z"/>
	<path class="st2" d="M368.9,394.3c0,2.8-0.4,5.2-4.3,5.2c-3.9,0-4.3-2.4-4.3-5.2c0-2.8,0.4-5.2,4.3-5.2
		C368.5,389.1,368.9,391.5,368.9,394.3 M364.6,397.2c0.6,0,0.8-0.6,0.8-2.9c0-2.3-0.1-2.9-0.8-2.9c-0.6,0-0.8,0.6-0.8,2.9
		C363.8,396.6,363.9,397.2,364.6,397.2"/>
	<path class="st2" d="M375.3,398.1L375.3,398.1c-0.6,1-1.5,1.4-2.7,1.4c-1.3,0-2.4-0.7-2.4-2.5v-7.7h3.6v6.6c0,0.8,0.2,1,0.7,1
		c0.5,0,0.7-0.4,0.7-1v-6.6h3.6v9.9h-3.4V398.1z"/>
	<path class="st2" d="M380.4,389.4h3.4v1.5h0c0.3-1,1.1-1.7,2.1-1.7c0.4,0,0.5,0,0.6,0.1v3.2c-0.1,0-0.3,0-0.4-0.1
		c-0.2,0-0.3,0-0.7,0c-1.2,0-1.5,0.6-1.5,1.8v5.1h-3.6V389.4z"/>
	<path class="st2" d="M392.5,392.8c0-1-0.2-1.4-0.8-1.4c-0.7,0-0.8,0.4-0.8,2.9c0,2.4,0.1,2.9,0.8,2.9c0.7,0,0.9-0.5,0.9-2.2h3.2
		c0,1.6-0.2,2.7-0.9,3.4c-0.6,0.7-1.7,1.1-3.2,1.1c-3.9,0-4.3-2.4-4.3-5.2c0-2.8,0.4-5.2,4.3-5.2c3.2,0,4.1,1.2,4.1,4.2h-3.3V392.8z
		"/>
	<path class="st2" d="M400.4,396.2c0,0.5,0,1.2,0.8,1.2c0.7,0,0.8-0.6,0.8-1.6h3.2c0,1.4-0.4,2.3-1.1,2.9c-0.7,0.6-1.7,0.9-2.9,0.9
		c-3.9,0-4.3-2.4-4.3-5.2c0-2.8,0.4-5.2,4.3-5.2c4.1,0,4.1,2.5,4.1,5.6v0.2h-4.9V396.2z M401.9,392.4c0-1-0.2-1.2-0.8-1.2
		c-0.5,0-0.8,0.3-0.8,1.2v0.6h1.5V392.4z"/>
	<path class="st2" d="M422.4,392.7c0-0.8-0.2-1-0.7-1c-0.5,0-0.7,0.4-0.7,1v6.6h-3.6v-6.6c0-0.8-0.2-1-0.7-1c-0.5,0-0.7,0.4-0.7,1
		v6.6h-3.6v-9.9h3.5v1.1h0c0.5-1,1.4-1.4,2.6-1.4c1,0,1.9,0.4,2.4,1.4c0.5-1,1.4-1.4,2.6-1.4c1.3,0,2.4,0.7,2.4,2.5v7.7h-3.6V392.7z
		"/>
	<path class="st2" d="M435.6,397.8c0,0.5,0.1,1,0.3,1.5h-3.3c-0.1-0.3-0.2-0.7-0.2-1l0,0c-0.4,1-1.3,1.3-2.3,1.3
		c-1.9,0-2.7-1-2.7-2.9c0-2.2,1-2.8,2.4-3.1l1.6-0.4c0.7-0.2,1-0.4,1-1c0-0.5-0.3-0.8-0.7-0.8c-0.8,0-0.9,0.6-0.9,1.1h-3.1
		c0-2.2,1.2-3.3,4-3.3c3.2,0,3.9,1.3,3.9,2.9V397.8z M432.4,394.5c-0.2,0.1-0.5,0.2-0.9,0.4c-0.6,0.2-0.7,0.7-0.7,1.3
		c0,0.6,0.2,1,0.7,1c0.7,0,0.8-0.6,0.8-1.2V394.5z"/>
	<path class="st2" d="M442.4,392.7c0-0.8-0.2-1-0.7-1c-0.5,0-0.7,0.4-0.7,1v6.6h-3.6v-9.9h3.4v1.1h0c0.5-1,1.4-1.4,2.6-1.4
		c1.3,0,2.4,0.7,2.4,2.5v7.7h-3.6V392.7z"/>
	<path class="st2" d="M455.6,397.8c0,0.5,0.1,1,0.3,1.5h-3.3c-0.1-0.3-0.2-0.7-0.2-1l0,0c-0.4,1-1.3,1.3-2.3,1.3
		c-1.9,0-2.7-1-2.7-2.9c0-2.2,1-2.8,2.4-3.1l1.6-0.4c0.7-0.2,1-0.4,1-1c0-0.5-0.3-0.8-0.7-0.8c-0.8,0-0.9,0.6-0.9,1.1h-3.1
		c0-2.2,1.2-3.3,4-3.3c3.2,0,3.9,1.3,3.9,2.9V397.8z M452.3,394.5c-0.2,0.1-0.5,0.2-0.9,0.4c-0.6,0.2-0.7,0.7-0.7,1.3
		c0,0.6,0.2,1,0.7,1c0.7,0,0.8-0.6,0.8-1.2V394.5z"/>
	<path class="st2" d="M462.5,389.4h3.4v9.5c0,2.9-1.8,3.8-4.4,3.8c-3.7,0-3.9-1.7-4-2.9h3.2c0,0.2,0.1,0.4,0.2,0.5
		c0.1,0.2,0.3,0.2,0.6,0.2c0.6,0,0.9-0.2,0.9-0.9v-2h0c-0.4,1-1.3,1.3-2.3,1.3c-2.3,0-2.8-2.5-2.8-4.8c0-2.2,0.2-5,3.1-5
		c1.1,0,1.8,0.5,2.2,1.5h0V389.4z M461.6,391.7c-0.7,0-0.8,0.7-0.8,2.6c0,1.4,0.1,2.1,0.8,2.1c0.7,0,0.8-0.7,0.8-2.1
		C462.4,392.5,462.3,391.7,461.6,391.7"/>
	<path class="st2" d="M470.9,396.2c0,0.5,0,1.2,0.8,1.2c0.7,0,0.8-0.6,0.8-1.6h3.2c0,1.4-0.4,2.3-1.1,2.9c-0.7,0.6-1.7,0.9-2.9,0.9
		c-3.9,0-4.3-2.4-4.3-5.2c0-2.8,0.4-5.2,4.3-5.2c4.1,0,4.1,2.5,4.1,5.6v0.2h-4.9V396.2z M472.4,392.4c0-1-0.2-1.2-0.8-1.2
		c-0.5,0-0.7,0.3-0.7,1.2v0.6h1.5V392.4z"/>
	<path class="st2" d="M487,392.7c0-0.8-0.2-1-0.7-1c-0.5,0-0.7,0.4-0.7,1v6.6H482v-6.6c0-0.8-0.2-1-0.7-1c-0.5,0-0.7,0.4-0.7,1v6.6
		h-3.6v-9.9h3.4v1.1h0c0.5-1,1.4-1.4,2.6-1.4c1,0,1.9,0.4,2.4,1.4c0.5-1,1.4-1.4,2.6-1.4c1.3,0,2.4,0.7,2.4,2.5v7.7H487V392.7z"/>
	<path class="st2" d="M495.6,396.2c0,0.5,0,1.2,0.8,1.2c0.7,0,0.8-0.6,0.8-1.6h3.2c0,1.4-0.4,2.3-1.1,2.9c-0.7,0.6-1.7,0.9-2.9,0.9
		c-3.9,0-4.3-2.4-4.3-5.2c0-2.8,0.4-5.2,4.3-5.2c4.1,0,4.1,2.5,4.1,5.6v0.2h-4.9V396.2z M497.1,392.4c0-1-0.2-1.2-0.8-1.2
		c-0.5,0-0.8,0.3-0.8,1.2v0.6h1.5V392.4z"/>
	<path class="st2" d="M506.7,392.7c0-0.8-0.2-1-0.7-1c-0.5,0-0.7,0.4-0.7,1v6.6h-3.6v-9.9h3.4v1.1h0c0.5-1,1.4-1.4,2.6-1.4
		c1.3,0,2.4,0.7,2.4,2.5v7.7h-3.6V392.7z"/>
	<path class="st2" d="M512.4,386.4h3.6v2.9h1.2v2.3H516v4.4c0,0.6,0.1,0.9,0.7,0.9c0.3,0,0.4,0,0.6-0.1v2.4c-0.3,0-1.2,0.1-1.8,0.1
		c-2,0-3-0.1-3-2.3v-5.4h-1.1v-2.3h1.1V386.4z"/>
	<path class="st2" d="M529.1,392.8c0-1-0.2-1.4-0.8-1.4c-0.7,0-0.8,0.4-0.8,2.9c0,2.4,0.1,2.9,0.8,2.9c0.7,0,0.9-0.5,0.9-2.2h3.2
		c0,1.6-0.2,2.7-0.9,3.4c-0.6,0.7-1.7,1.1-3.2,1.1c-3.9,0-4.3-2.4-4.3-5.2c0-2.8,0.4-5.2,4.3-5.2c3.2,0,4.1,1.2,4.1,4.2h-3.3V392.8z
		"/>
	<path class="st2" d="M542.1,394.3c0,2.8-0.4,5.2-4.3,5.2c-3.9,0-4.3-2.4-4.3-5.2c0-2.8,0.4-5.2,4.3-5.2
		C541.6,389.1,542.1,391.5,542.1,394.3 M537.7,397.2c0.6,0,0.8-0.6,0.8-2.9c0-2.3-0.2-2.9-0.8-2.9c-0.6,0-0.8,0.6-0.8,2.9
		C536.9,396.6,537.1,397.2,537.7,397.2"/>
	<path class="st2" d="M553.4,392.7c0-0.8-0.2-1-0.7-1c-0.5,0-0.7,0.4-0.7,1v6.6h-3.6v-6.6c0-0.8-0.2-1-0.7-1c-0.5,0-0.7,0.4-0.7,1
		v6.6h-3.6v-9.9h3.4v1.1h0c0.5-1,1.4-1.4,2.6-1.4c1,0,1.9,0.4,2.4,1.4c0.5-1,1.4-1.4,2.6-1.4c1.3,0,2.4,0.7,2.4,2.5v7.7h-3.6V392.7z
		"/>
	<path class="st2" d="M568.7,392.7c0-0.8-0.2-1-0.7-1c-0.5,0-0.7,0.4-0.7,1v6.6h-3.6v-6.6c0-0.8-0.2-1-0.7-1c-0.5,0-0.7,0.4-0.7,1
		v6.6h-3.6v-9.9h3.5v1.1h0c0.5-1,1.4-1.4,2.6-1.4c1,0,1.9,0.4,2.4,1.4c0.5-1,1.4-1.4,2.6-1.4c1.3,0,2.4,0.7,2.4,2.5v7.7h-3.6V392.7z
		"/>
	<path class="st2" d="M579,398.1L579,398.1c-0.6,1-1.5,1.4-2.7,1.4c-1.3,0-2.4-0.7-2.4-2.5v-7.7h3.6v6.6c0,0.8,0.2,1,0.7,1
		c0.5,0,0.7-0.4,0.7-1v-6.6h3.6v9.9H579V398.1z"/>
	<path class="st2" d="M589,392.7c0-0.8-0.2-1-0.7-1c-0.5,0-0.7,0.4-0.7,1v6.6h-3.6v-9.9h3.4v1.1h0c0.5-1,1.4-1.4,2.6-1.4
		c1.3,0,2.4,0.7,2.4,2.5v7.7H589V392.7z"/>
	<path class="st2" d="M594.3,386h3.6v2.5h-3.6V386z M594.3,389.4h3.6v9.9h-3.6V389.4z"/>
	<path class="st2" d="M600.1,386.4h3.6v2.9h1.2v2.3h-1.2v4.4c0,0.6,0.1,0.9,0.7,0.9c0.3,0,0.4,0,0.6-0.1v2.4c-0.3,0-1.2,0.1-1.8,0.1
		c-2,0-3-0.1-3-2.3v-5.4H599v-2.3h1.1V386.4z"/>
	<path class="st2" d="M605.4,389.4h3.7l0.9,6h0l0.8-6h3.6l-2.5,9.8c-0.6,2.4-1.1,3.3-3.7,3.3c-0.8,0-1.2-0.1-1.7-0.2V400
		c0.3,0,0.6,0.1,0.9,0.1c0.3,0,0.5-0.1,0.6-0.3c0.1-0.2,0.2-0.3,0.2-0.5L605.4,389.4z"/>
</g>
</svg>
